<?xml version="1.0" encoding="UTF-8" ?>
<!DOCTYPE svg PUBLIC "-//W3C//DTD SVG 1.1//EN" "http://www.w3.org/Graphics/SVG/1.1/DTD/svg11.dtd">
<svg width="1920pt" height="303pt" viewBox="0 0 1920 303" version="1.1" xmlns="http://www.w3.org/2000/svg">
<g id="#e2f1fcff">
</g>
<g id="#d3eeffff">
<path fill="#d3eeff" opacity="1.00" d=" M 0.00 3.90 C 4.59 6.51 9.45 8.61 14.25 10.79 C 37.02 21.67 60.10 31.91 83.40 41.59 C 145.07 67.52 207.89 90.66 271.39 111.69 C 370.70 144.86 471.80 172.58 573.81 196.15 C 586.31 199.09 598.92 201.56 611.33 204.84 C 590.94 207.77 570.40 209.67 549.95 212.27 C 413.82 228.62 278.02 247.77 142.64 269.52 C 97.75 276.77 52.89 284.26 8.13 292.31 C 5.40 292.80 2.68 293.30 0.00 294.01 L 0.00 3.90 Z" />
</g>
<g id="#d9eaf8ff">
<path fill="#d9eaf8" opacity="1.00" d=" M 1236.98 160.82 C 1249.28 159.48 1261.65 160.24 1273.99 160.01 C 1302.66 159.97 1331.33 159.91 1360.00 160.07 C 1373.34 159.66 1386.61 161.51 1399.96 161.02 C 1411.34 160.44 1422.63 162.35 1434.00 161.95 C 1441.68 161.70 1449.29 163.16 1456.97 162.99 C 1461.98 162.86 1466.98 163.30 1471.97 163.77 C 1492.01 164.52 1512.03 165.93 1532.04 167.33 C 1625.41 174.32 1718.87 186.03 1809.42 210.52 C 1847.33 220.91 1884.59 234.00 1920.00 251.16 L 1920.00 251.87 C 1721.08 279.57 1519.98 291.69 1319.17 287.54 C 1085.58 282.77 852.37 256.20 623.89 207.26 C 621.05 206.66 618.27 205.88 615.46 205.19 C 622.53 203.48 629.81 203.21 637.00 202.30 C 793.76 184.88 951.08 171.59 1108.62 164.53 C 1116.91 163.49 1125.29 164.53 1133.59 163.55 C 1139.36 162.92 1145.18 162.95 1150.98 163.00 C 1158.69 163.13 1166.34 161.77 1174.06 161.98 C 1182.05 162.14 1190.05 161.93 1198.02 161.19 C 1211.00 160.80 1224.00 161.18 1236.98 160.82 Z" />
</g>
<g id="#b5d6f2ff">
<path fill="#b5d6f2" opacity="1.00" d=" M 549.95 212.27 C 570.40 209.67 590.94 207.77 611.33 204.84 C 612.70 204.96 614.08 205.08 615.46 205.19 C 618.27 205.88 621.05 206.66 623.89 207.26 C 852.37 256.20 1085.58 282.77 1319.17 287.54 C 1519.98 291.69 1721.08 279.57 1920.00 251.87 L 1920.00 303.00 L 0.00 303.00 L 0.00 294.01 C 2.68 293.30 5.40 292.80 8.13 292.31 C 52.89 284.26 97.75 276.77 142.64 269.52 C 278.02 247.77 413.82 228.62 549.95 212.27 Z" />
</g>
</svg>
