<?xml version="1.0" encoding="utf-8"?><svg id="AS_test" image-rendering="auto" baseProfile="basic" version="1.1" x="0px" y="0px" width="960" height="640" xmlns="http://www.w3.org/2000/svg" xmlns:xlink="http://www.w3.org/1999/xlink"><defs><g id="steam-3" overflow="visible"><path fill="#FFF" stroke="none" d="M1.95 -9.55L4.15 -15.05Q2.5 -13.2 -1.35 -7.45 -6.25 -.2 -2.4 8.2 -.55 12.45 2.4 15.1 1.45 12.9 .65 9.6 -1 3.2 -.55 -2.2 -.4 -3.85 1.95 -9.55Z"/></g><g id="steam-4" overflow="visible"><path fill="#FFF" stroke="none" d="M-4.2 11.65Q1.05 5.45 3.05 1.7 6.8 -4.95 .15 -11.6 .85 -7.85 -2 -1.55 -4.9 5.1 -4.2 11.65Z"/></g><g id="steam-5" overflow="visible"><path fill="#FFF" stroke="none" d="M-14 -26.9Q-16.25 -10.5 -10.75 -3.6 -8.65 -1.05 3.2 5.4 10.1 9.05 8.7 18.4 8 23.05 5.9 26.95L10.3 21.2Q14.65 14.4 14.65 9.4 14.65 1.45 -3.35 -7 -8.85 -9.55 -12 -18.45L-14 -26.9Z"/></g></defs><g id="Scene-1" overflow="visible"><g id="BGd240" transform="translate(480 319.55)"><path fill="#89EDFE" stroke="none" d="M-228 -298.45L-228 88.4 227.65 88.4 227.65 -298.45 -228 -298.45Z"/><path fill="#6B8390" stroke="none" d="M-196.9 -156.1Q-199.1 -158.4 -202.4 -158.4 -205.65 -158.4 -207.9 -156.1 -210.2 -153.85 -210.2 -150.6 -210.2 -147.3 -207.9 -145.1 -205.65 -142.75 -202.4 -142.75 -199.1 -142.75 -196.9 -145.1 -194.55 -147.3 -194.55 -150.6 -194.55 -153.85 -196.9 -156.1Z"/><path fill="#83CDF1" stroke="none" d="M-70.9 -186.75L-72.05 -186.75 -72.05 -168.6 -79.3 -164.75 -77.35 -159.25Q-77.9 -158.8 -78.5 -157.95 -79.65 -156.55 -79.65 -155.25 -79.65 -153.4 -75.1 -149.9 -73.95 -136.1 -80.35 -84.05 -83.55 -58.05 -87.05 -34.8L-93.1 -34.8 -93.1 -31.6 -89.4 -27.4 -105.3 16.45 -115.7 16.45 -115.7 19.6 -111.95 23.15 -117.55 23 -117.55 26.05 -113.25 27.8 -113.25 33.75 -152.8 90.25 -128.1 90.25 -126.1 87.35 -109.25 87.35Q-109.25 66.05 -90.3 56.25 -80.7 51.3 -70.9 50.6L-70.9 50.75 -64.95 51.65Q-57.7 53.2 -51.7 56.25 -32.65 65.95 -32.65 87.45L-15.8 87.45 -13.8 90.25 10.85 90.25 -28.65 33.9 -28.65 27.9 -24.35 26.05 -24.35 23.15 -29.95 23.15 -26.2 19.6 -26.2 16.6 -36.5 16.6 -52.55 -27.4 -48.8 -31.6 -48.8 -34.8 -54.85 -34.8Q-58.25 -58.05 -61.55 -84.05 -67.95 -136.1 -66.7 -149.9 -62.25 -153.3 -62.25 -155.25 -62.25 -156.45 -63.4 -157.95L-64.6 -159.25 -62.6 -164.6 -69.85 -168.5 -69.85 -186.6 -70.9 -186.6 -70.9 -186.75M-76.05 -16.05L-65.75 -16.05 -55.9 17.65 -86 17.65 -76.05 -16.05Z"/><path fill="#83CDF1" stroke="none" d="M39.4 -10.45Q38.25 -13.7 34.6 -14.05L7.95 -14.05Q7.6 -14.2 7.35 -13.85 5.25 -12.45 3.85 -9.4 2.55 -5.9 1.65 -4.35 -.45 -3.8 -.95 -2.75 -1.4 -1.65 -.25 -.4 -1.4 12.6 -2 14.45L-78.4 13.75Q-80.35 14 -83.3 18.45 -86.35 23.35 -87.25 24.4L-87.4 24.4Q-89.15 24.65 -93.6 24.65 -98.05 24.65 -99.65 24.4L-99.65 19.75 -99.3 17.5Q-97.7 17.05 -97.1 15.85 -96.5 14.7 -97.8 13.9 -99.65 12.7 -100.85 10.6 -102 8.05 -102.6 6.75 -104.6 2.65 -108.8 3L-121.8 3Q-122.85 3 -123.3 2.75 -123.9 2.4 -123.75 1.25 -123.3 -1.9 -126.95 -2.5 -128 -7.15 -130.8 -10.7 -131.95 -12.2 -133.95 -12.45 -134.4 -12.55 -137.55 -12.55L-157.95 -12.65Q-162.85 -13.15 -165.2 -8.2 -165.65 -7.05 -166.7 -4.7 -167.65 -2.85 -169.4 -1.9 -170.45 -1.45 -170.35 -.4 -170.2 .8 -169.05 1.25 -168 1.7 -167.65 2.65 -167.5 3.1 -167.5 4.55L-167.5 23.15 -182.75 23.25Q-186.25 23.25 -187.5 26.05 -189.75 30.95 -190.9 33.3 -192.45 33.55 -193.15 34.8 -193.95 36 -192.9 36.7 -191.25 38 -191.05 40.1 -190.9 41.35 -191.15 43.7 -191.4 43.7 -193.5 43.85 -195 43.85 -195.85 42.9 -195.35 41.75 -195.85 40.65L-195.95 39.6Q-195.7 35.3 -195.7 29.2 -195.85 22.3 -195.85 18.8 -195.85 16.6 -194.4 15.75 -193.5 15.15 -193.35 14 -193.25 12.95 -194.2 12.5 -196.05 11.65 -197.1 9.55 -198.05 7 -198.65 5.7 -200.6 1.6 -205.05 1.6L-226.1 1.6 -226.1 89.1 58 89.1 58 86.3Q58 81.85 57.3 81.05 56.6 80.35 52.15 80.2L52.4 71.65Q60.45 69.7 63.05 62.8 65.5 56 60.6 49.2 59.65 48.4 60.25 46.75 62.45 41.5 59.4 36.95 58.5 35.4 58.95 33.55 60.25 27.55 56.05 24.2 50.2 18.8 42.7 24.65L42.6 2.2Q42.6 .9 43.05 .45 45.05 -1.3 44.8 -2.15 44.7 -2.95 42.2 -4.15L39.4 -10.45Z"/><path fill="#7CB9E5" stroke="none" d="M10.75 -.75Q9 -4.85 4.55 -4.85L-17.3 -4.85Q-23.15 -5.2 -25.05 .1 -26.3 3.25 -26.45 3.45 -27.5 5.35 -29.25 6.05 -30.2 6.5 -30.05 7.55 -30.05 8.6 -29.15 9.1 -28.1 9.65 -27.85 10.6 -27.6 11.1 -27.6 12.35L-27.6 16.6Q-30.3 16.45 -33 16.35 -38.35 16.2 -38.6 16.6 -43.5 16.2 -45.5 20.9 -47.95 27.7 -48.8 29.1L-63.85 29.1 -70.2 20.55Q-72.4 17.75 -74.4 20.1 -85.05 32.35 -87.75 43.6 -89.5 50.95 -85.85 56.6 -82.35 62.1 -75.1 63.5L-75.1 72.75Q-77.45 71.9 -80.85 70.15 -86.1 67.35 -86.35 67.25 -99.8 61.15 -109.5 58.9 -117 57.85 -120.6 56.8 -120.6 55.05 -120.5 54.6 -120.15 53.55 -118.85 52.95 -117.9 52.5 -117.9 51.45 -117.9 50.25 -118.85 49.9 -120.5 49.1 -121.55 47.35 -121.65 47 -122.95 44.05 -124.95 38.35 -130.65 39.15 -142.5 39.15 -143.4 39.15 -143.65 36.7 -143.55 35.4 -143.4 33.4 -141.45 32.35 -140.85 31.9 -140.85 30.95 -140.95 30.05 -141.8 29.55 -143.4 28.85 -144.35 27.35 -144.8 26.5 -145.55 24.3 -147.85 18 -153.95 18.8 -154.9 18.9 -163.75 19.05 -172.45 19.15 -173.7 19.05 -180.15 18.1 -182.35 24.65 -183.45 28.05 -184.7 28.85 -186.8 30.5 -186.8 31.3 -186.7 32.15 -184.5 33.65 -184.6 34.25 -184.6 35.4 -184.7 36.35 -185.55 36.7L-211.6 36.7Q-212.3 36.1 -212.65 36.95 -214.9 38.1 -215.7 40.3L-218.15 45.45 -220.5 47.35Q-221.55 48.05 -221.55 49.1 -221.7 50.25 -220.5 50.75 -219.2 51.3 -218.85 52.35 -218.75 52.85 -218.75 54.5L-218.75 83.6 -224.25 83.6 -224.25 89.1 227.75 89.1 227.5 -21.1Q224.85 -21.1 222.15 -21.1 216.75 -20.95 216.65 -20.75 214.65 -19.35 213.25 -16.3 211.85 -12.8 210.9 -11.15 208.8 -10.55 208.35 -9.5 207.85 -8.45 209.15 -7.3 210.8 -5.55 210.65 -3.3 210.65 -1.9 209.75 .8 207.3 -5.75 200.85 -4.85 198.85 -4.5 137.8 -4.15 132.4 -4.15 129.25 .45 126.2 4.9 123.9 4.9L123.05 4.9Q120.85 5.1 120.85 7.1 120.85 8.95 122.7 9.3 124.6 9.3 124.25 11.2 124.25 11.8 124.25 12.6 124 13.3 123.05 13.55 119.45 14.6 122 17.85L121.9 17.85Q120.15 18.1 115.7 18.1 111.25 18.1 109.6 17.85L109.6 13.05 109.95 10.85Q111.6 10.5 112.2 9.3 112.75 8.15 111.5 7.2 109.6 6.05 108.45 3.95 107.4 1.35 106.7 .1 104.8 -3.8 100.5 -3.65L41.85 -3.65 41.85 16.6 26.8 16.6Q23.25 16.6 21.85 19.4L18.5 26.65Q16.95 26.85 16.15 28.25 15.3 29.55 16.5 30.15 18.25 30.95 18.35 37.05L13.7 37.05Q13.9 34.7 13.7 34L13.45 32.95Q13.7 29.2 13.7 22.65 13.55 15.05 13.7 12.35 13.7 10.15 14.95 9.3 16 8.75 16.15 7.55 16.25 6.4 15.3 6.05 13.45 5.1 12.4 3.1 11.35 .55 10.75 -.75Z"/><path fill="#91B0C3" stroke="none" d="M227.65 -215.85L227.65 -298.45 -228 -298.45 -228 -215.85 227.65 -215.85Z"/><path id="Layer26_0_1_STROKES" stroke="#6B8390" stroke-width="7" stroke-linejoin="miter" stroke-linecap="butt" stroke-miterlimit="10" fill="none" d="M-227.95 -215.9L227.65 -215.9M-227.95 -279.7L227.65 -279.7M-227.95 -298.5L227.65 -298.5M-227.95 -257.55L227.65 -257.55M-227.95 -237.1L227.65 -237.1"/><path id="Layer25_0_1_STROKES" stroke="#6B8390" stroke-width="6" stroke-linejoin="miter" stroke-linecap="butt" stroke-miterlimit="10" fill="none" d="M-202.5 -215.9L-202.5 -149.5"/><path id="Layer24_0_1_STROKES" stroke="#6B8390" stroke-width="7" stroke-linejoin="miter" stroke-linecap="butt" stroke-miterlimit="10" fill="none" d="M227.65 90.25L-228 90.25 -228 -298.45 227.65 -298.45 227.65 90.25Z"/><path fill="#91B0C3" stroke="none" d="M182.95 281.8Q258.75 261.5 258.75 232.8 258.75 204.15 182.95 183.8 107.2 163.55 0 163.55 -107.1 163.55 -182.95 183.8 -258.75 204.15 -258.75 232.8 -258.75 261.5 -182.95 281.8 -107.1 302.05 0 302.05 107.2 302.05 182.95 281.8Z"/><path fill="#064599" stroke="none" d="M-143.3 85.25Q-134.05 85.25 -127.5 76.8L-123.05 75.55Q-110.1 71.65 -108.7 62.65 -108.1 59.25 -109.95 56.45 -112.2 52.95 -116.4 52.95L-121.3 52.95 -121.3 48.75 -173.35 48.75 -173.35 57.5Q-173.35 69 -166.95 77.15 -160.4 85.25 -151.35 85.25L-143.3 85.25M-125.15 70.4Q-122.7 64.65 -122.6 58.45L-117.7 58.45Q-116.05 58.45 -115 59.5 -113.8 60.45 -114.05 61.85 -115.1 67.35 -125.15 70.4Z"/><path fill="#2F2C63" stroke="none" d="M-131.15 90.25Q-129.15 90.25 -127.75 89 -126.35 87.8 -126.35 85.95L-112.65 80 -183.9 80 -169.05 85.95Q-169.05 87.8 -167.65 89 -166.25 90.25 -164.25 90.25L-131.15 90.25Z"/><path fill="#FABE9A" stroke="none" d="M34.5 191L35.55 181.5 15.45 181.5Q25.6 216.95 25.95 222 26.2 224.45 31.6 237.9 36.75 250.75 36.5 252.4 36.4 253.55 33.35 257.9 31 261.3 32.65 262.1 34.5 263.3 38.6 261.3 42.45 259.3 42.95 257.45 43.15 256.5 44.9 253.35 46.55 250.4 46.55 248.9 46.55 247.7 45.6 245.25 44.7 242.7 44.7 240.35 44.7 237.65 47.25 232.05 50.2 226.2 50.9 224.45 52.05 221.65 51.6 217.45 51.1 213 49.15 211.95 43.65 209.8 41.3 208.9 37.3 207.25 35.55 204.2 33.8 201.05 34.5 191Z"/><path fill="#FABE9A" stroke="none" d="M-71.7 92.4Q-65.3 92.4 -56.5 91.1 -47.6 89.8 -45.15 89.8 -42.25 89.8 -36.25 90.95 -31 91.7 -27.75 89.45 -25.05 87.8 -27.5 82.8L-30.4 78.2Q-30.2 75.9 -20.6 70.25 -15.8 67.45 -11 65.1L-25.5 51.2Q-42.7 72.95 -47.4 74.25 -56.4 76.7 -64.6 80.55L-70.9 83.95Q-72.9 85.25 -79.45 85.5 -83.75 85.7 -83.75 89.45 -83.75 91.45 -79.9 92.05 -77.7 92.4 -71.7 92.4Z"/><path fill="#5E5B91" stroke="none" d="M25.95 -19.55Q18.7 -13.15 13.35 -4.95L-25.5 51.2 -11 65.1 -4.45 61.05Q-6.55 62.45 -8.9 63.95L-10.2 68.65Q-11.25 76.95 -10.4 94.7 -9.6 112.6 3.05 148.9 9.35 167 15.45 181.5L35.55 181.5Q37.55 140.2 33.7 122.9 30.55 108.65 19.75 99.75 18.5 98.45 17.9 97.15 16.7 94.5 20.35 94.35 21.75 94.25 43.5 96.8 69.6 99.4 91.7 99.3 163.3 98.7 186.1 70.85 179.55 69.7 170.9 63.15 153.8 50.15 144.1 23.35 118.85 9.8 92.15 -2.95 38.85 -28.6 32.05 -24.5 29.6 -22.85 25.95 -19.55M56.95 20.3Q65.05 29.9 75.7 45.45 59.55 46.65 43.15 47.95 10.5 50.5 9.25 51.3 7.675 52.537 5.8 53.9 12.015 49.108 18.6 43.25 30.65 32.5 37.3 23.35 43.65 14.6 43.65 10.25 43.65 8.75 44.7 8.15L45.5 8.05Q46.65 8.25 47.7 9.65 50.05 12.6 56.95 20.3Z"/><path fill="#B2B1AC" stroke="none" d="M32.05 -30.2Q30.65 -30.55 30.2 -29.3L28.75 -24.6Q28.4 -23.2 29.7 -22.75L90.55 -4.25Q91.95 -3.8 92.3 -5.2L93.8 -9.85Q94.3 -11.15 92.75 -11.6L32.05 -30.2Z"/><path fill="#B2B1AC" stroke="none" d="M22.35 -91.05Q22 -92.45 20.6 -92.2L15.8 -91.05Q14.25 -90.6 14.75 -89.3L29.7 -27.55Q30.2 -26.1 31.45 -26.45L36.15 -27.65Q37.55 -27.9 37.3 -29.4L22.35 -91.05Z"/></g><g id="Steamd240" transform="translate(330.05 318.95)"><g display="none"><use xlink:href="#steam-5" transform="matrix(.777 0 0 .777 1.4 29.6)"><animateTransform attributeName="transform" additive="replace" type="translate" repeatCount="indefinite" dur="10s" keyTimes="0;.32099;.321;.32499;.325;.32899;.329;.33299;.333;.33799;.338;.34199;.342;.34599;.346;.34999;.35;.35399;.354;.35799;.358;.36299;.363;.36699;.367;.37099;.371;.37499;.375;.37899;.379;.38299;.383;.38799;.388;.39199;.392;.39599;.396;.81699;.817;.82099;.821;.82499;.825;.82899;.829;.83299;.833;.83799;.838;.84199;.842;.84599;.846;.84999;.85;.85399;.854;.85799;.858;.86299;.863;.86699;.867;.87099;.871;.87499;.875;.87899;.879;.88299;.883;.88799;.888;.89199;.892;.89599;.896;1" values="1.428,29.628;1.428,29.628;1.177,28.028;1.177,28.028;.902,26.509;.902,26.509;.485,24.818;.485,24.818;.174,23.181;.174,23.181;-.207,21.566;-.207,21.566;-.595,19.925;-.595,19.925;-.86,18.316;-.86,18.316;-1.25,16.712;-1.25,16.712;-1.559,15.027;-1.559,15.027;-1.526,14.37;-1.526,14.37;-1.572,13.632;-1.572,13.632;-1.6,12.871;-1.6,12.871;-1.631,12.171;-1.631,12.171;-1.664,11.426;-1.664,11.426;-1.753,10.669;-1.753,10.669;-1.724,10.014;-1.724,10.014;-1.784,9.302;-1.784,9.302;-1.759,8.488;-1.759,8.488;-1.806,7.816;-1.806,7.816;1.428,29.628;1.428,29.628;1.177,28.028;1.177,28.028;.902,26.509;.902,26.509;.485,24.818;.485,24.818;.174,23.181;.174,23.181;-.207,21.566;-.207,21.566;-.595,19.925;-.595,19.925;-.86,18.316;-.86,18.316;-1.25,16.712;-1.25,16.712;-1.559,15.027;-1.559,15.027;-1.526,14.37;-1.526,14.37;-1.572,13.632;-1.572,13.632;-1.6,12.871;-1.6,12.871;-1.631,12.171;-1.631,12.171;-1.664,11.426;-1.664,11.426;-1.753,10.669;-1.753,10.669;-1.724,10.014;-1.724,10.014;-1.784,9.302;-1.784,9.302;-1.759,8.488;-1.759,8.488;-1.806,7.816;-1.806,7.816" calcMode="discrete"/><animateTransform attributeName="transform" additive="sum" type="rotate" repeatCount="indefinite" dur="10s" keyTimes="0;.32099;.321;.32499;.325;.32899;.329;.33299;.333;.33799;.338;.34199;.342;.34599;.346;.34999;.35;.35399;.354;.35799;.358;.36299;.363;.36699;.367;.37099;.371;.37499;.375;.37899;.379;.38299;.383;.38799;.388;.39199;.392;.39599;.396;.81699;.817;.82099;.821;.82499;.825;.82899;.829;.83299;.833;.83799;.838;.84199;.842;.84599;.846;.84999;.85;.85399;.854;.85799;.858;.86299;.863;.86699;.867;.87099;.871;.87499;.875;.87899;.879;.88299;.883;.88799;.888;.89199;.892;.89599;.896;1" values="0,0,0;0,0,0;.733,0,0;.733,0,0;1.47,0,0;1.47,0,0;2.205,0,0;2.205,0,0;2.941,0,0;2.941,0,0;3.676,0,0;3.676,0,0;4.413,0,0;4.413,0,0;5.149,0,0;5.149,0,0;5.885,0,0;5.885,0,0;6.619,0,0;6.619,0,0;7.356,0,0;7.356,0,0;8.092,0,0;8.092,0,0;8.827,0,0;8.827,0,0;9.563,0,0;9.563,0,0;10.299,0,0;10.299,0,0;11.035,0,0;11.035,0,0;11.771,0,0;11.771,0,0;12.506,0,0;12.506,0,0;13.241,0,0;13.241,0,0;13.977,0,0;13.977,0,0;0,0,0;0,0,0;.733,0,0;.733,0,0;1.47,0,0;1.47,0,0;2.205,0,0;2.205,0,0;2.941,0,0;2.941,0,0;3.676,0,0;3.676,0,0;4.413,0,0;4.413,0,0;5.149,0,0;5.149,0,0;5.885,0,0;5.885,0,0;6.619,0,0;6.619,0,0;7.356,0,0;7.356,0,0;8.092,0,0;8.092,0,0;8.827,0,0;8.827,0,0;9.563,0,0;9.563,0,0;10.299,0,0;10.299,0,0;11.035,0,0;11.035,0,0;11.771,0,0;11.771,0,0;12.506,0,0;12.506,0,0;13.241,0,0;13.241,0,0;13.977,0,0;13.977,0,0" calcMode="discrete"/><animateTransform attributeName="transform" additive="sum" type="scale" repeatCount="indefinite" dur="10s" keyTimes="0;.37099;.371;.81699;.817;.87099;.871;1" values=".777,.777;.777,.777;.776,.776;.776,.776;.777,.777;.777,.777;.776,.776;.776,.776" calcMode="discrete"/><animateTransform attributeName="transform" additive="sum" type="translate" repeatCount="indefinite" dur="10s" keyTimes="0;.32499;.325;.32899;.329;.33299;.333;.33799;.338;.34199;.342;.34599;.346;.34999;.35;.35399;.354;.35799;.358;.36299;.363;.36699;.367;.37099;.371;.37499;.375;.37899;.379;.38299;.383;.38799;.388;.39199;.392;.39599;.396;.81699;.817;.82499;.825;.82899;.829;.83299;.833;.83799;.838;.84199;.842;.84599;.846;.84999;.85;.85399;.854;.85799;.858;.86299;.863;.86699;.867;.87099;.871;.87499;.875;.87899;.879;.88299;.883;.88799;.888;.89199;.892;.89599;.896;1" values="-.1,-.1;-.1,-.1;-.2,-.2;-.2,-.2;-.05,-.15;-.05,-.15;-.1,-.1;-.1,-.1;0,-.15;0,-.15;.05,-.1;.05,-.1;0,-.15;0,-.15;.05,-.15;.05,-.15;0,-.1;0,-.1;-.05,-.15;-.05,-.15;-.05,-.1;-.05,-.1;.05,-.1;.05,-.1;-.05,-.15;-.05,-.15;0,-.1;0,-.1;.05,-.1;.05,-.1;0,-.15;0,-.15;0,-.2;0,-.2;0,-.05;0,-.05;.05,-.1;.05,-.1;-.1,-.1;-.1,-.1;-.2,-.2;-.2,-.2;-.05,-.15;-.05,-.15;-.1,-.1;-.1,-.1;0,-.15;0,-.15;.05,-.1;.05,-.1;0,-.15;0,-.15;.05,-.15;.05,-.15;0,-.1;0,-.1;-.05,-.15;-.05,-.15;-.05,-.1;-.05,-.1;.05,-.1;.05,-.1;-.05,-.15;-.05,-.15;0,-.1;0,-.1;.05,-.1;.05,-.1;0,-.15;0,-.15;0,-.2;0,-.2;0,-.05;0,-.05;.05,-.1;.05,-.1" calcMode="discrete"/><animate attributeName="opacity" repeatCount="indefinite" dur="10s" keyTimes="0;.32099;.321;.32499;.325;.32899;.329;.33299;.333;.33799;.338;.34199;.342;.34599;.346;.34999;.35;.35399;.354;.35799;.358;.36299;.363;.36699;.367;.37099;.371;.37499;.375;.37899;.379;.38299;.383;.38799;.388;.39199;.392;.39599;.396;.82099;.821;.82499;.825;.82899;.829;.83299;.833;.83799;.838;.84199;.842;.84599;.846;.84999;.85;.85399;.854;.85799;.858;.86299;.863;.86699;.867;.87099;.871;.87499;.875;.87899;.879;.88299;.883;.88799;.888;.89199;.892;.89599;.896;1" values="0;0;.11;.11;.22;.22;.33;.33;.44;.44;.55;.55;.66;.66;.77;.77;.88;.88;1;1;.9;.9;.8;.8;.7;.7;.6;.6;.49;.49;.39;.39;.3;.3;.2;.2;.09;.09;0;0;.11;.11;.22;.22;.33;.33;.44;.44;.55;.55;.66;.66;.77;.77;.88;.88;1;1;.9;.9;.8;.8;.7;.7;.6;.6;.49;.49;.39;.39;.3;.3;.2;.2;.09;.09;0;0" calcMode="discrete"/></use><animate attributeName="display" repeatCount="indefinite" dur="10s" keyTimes="0;.317;.5;.817;1" values="none;inline;none;inline;inline"/></g><g><use xlink:href="#steam-5" transform="matrix(.777 0 0 .777 1.4 29.6)"><animateTransform attributeName="transform" additive="replace" type="translate" repeatCount="indefinite" dur="10s" keyTimes="0;.00399;.004;.00799;.008;.01299;.013;.01699;.017;.02099;.021;.02499;.025;.02899;.029;.03299;.033;.03799;.038;.04199;.042;.04599;.046;.04999;.05;.05399;.054;.05799;.058;.06299;.063;.06699;.067;.07099;.071;.07499;.075;.07899;.079;.49999;.5;.50399;.504;.50799;.508;.51299;.513;.51699;.517;.52099;.521;.52499;.525;.52899;.529;.53299;.533;.53799;.538;.54199;.542;.54599;.546;.54999;.55;.55399;.554;.55799;.558;.56299;.563;.56699;.567;.57099;.571;.57499;.575;.57899;.579;1" values="1.428,29.628;1.428,29.628;1.177,28.028;1.177,28.028;.902,26.509;.902,26.509;.485,24.818;.485,24.818;.174,23.181;.174,23.181;-.207,21.566;-.207,21.566;-.595,19.925;-.595,19.925;-.86,18.316;-.86,18.316;-1.25,16.712;-1.25,16.712;-1.559,15.027;-1.559,15.027;-1.526,14.37;-1.526,14.37;-1.572,13.632;-1.572,13.632;-1.6,12.871;-1.6,12.871;-1.631,12.171;-1.631,12.171;-1.664,11.426;-1.664,11.426;-1.753,10.669;-1.753,10.669;-1.724,10.014;-1.724,10.014;-1.784,9.302;-1.784,9.302;-1.759,8.488;-1.759,8.488;-1.806,7.816;-1.806,7.816;1.428,29.628;1.428,29.628;1.177,28.028;1.177,28.028;.902,26.509;.902,26.509;.485,24.818;.485,24.818;.174,23.181;.174,23.181;-.207,21.566;-.207,21.566;-.595,19.925;-.595,19.925;-.86,18.316;-.86,18.316;-1.25,16.712;-1.25,16.712;-1.559,15.027;-1.559,15.027;-1.526,14.37;-1.526,14.37;-1.572,13.632;-1.572,13.632;-1.6,12.871;-1.6,12.871;-1.631,12.171;-1.631,12.171;-1.664,11.426;-1.664,11.426;-1.753,10.669;-1.753,10.669;-1.724,10.014;-1.724,10.014;-1.784,9.302;-1.784,9.302;-1.759,8.488;-1.759,8.488;-1.806,7.816;-1.806,7.816" calcMode="discrete"/><animateTransform attributeName="transform" additive="sum" type="rotate" repeatCount="indefinite" dur="10s" keyTimes="0;.00399;.004;.00799;.008;.01299;.013;.01699;.017;.02099;.021;.02499;.025;.02899;.029;.03299;.033;.03799;.038;.04199;.042;.04599;.046;.04999;.05;.05399;.054;.05799;.058;.06299;.063;.06699;.067;.07099;.071;.07499;.075;.07899;.079;.49999;.5;.50399;.504;.50799;.508;.51299;.513;.51699;.517;.52099;.521;.52499;.525;.52899;.529;.53299;.533;.53799;.538;.54199;.542;.54599;.546;.54999;.55;.55399;.554;.55799;.558;.56299;.563;.56699;.567;.57099;.571;.57499;.575;.57899;.579;1" values="0,0,0;0,0,0;.733,0,0;.733,0,0;1.47,0,0;1.47,0,0;2.205,0,0;2.205,0,0;2.941,0,0;2.941,0,0;3.676,0,0;3.676,0,0;4.413,0,0;4.413,0,0;5.149,0,0;5.149,0,0;5.885,0,0;5.885,0,0;6.619,0,0;6.619,0,0;7.356,0,0;7.356,0,0;8.092,0,0;8.092,0,0;8.827,0,0;8.827,0,0;9.563,0,0;9.563,0,0;10.299,0,0;10.299,0,0;11.035,0,0;11.035,0,0;11.771,0,0;11.771,0,0;12.506,0,0;12.506,0,0;13.241,0,0;13.241,0,0;13.977,0,0;13.977,0,0;0,0,0;0,0,0;.733,0,0;.733,0,0;1.47,0,0;1.47,0,0;2.205,0,0;2.205,0,0;2.941,0,0;2.941,0,0;3.676,0,0;3.676,0,0;4.413,0,0;4.413,0,0;5.149,0,0;5.149,0,0;5.885,0,0;5.885,0,0;6.619,0,0;6.619,0,0;7.356,0,0;7.356,0,0;8.092,0,0;8.092,0,0;8.827,0,0;8.827,0,0;9.563,0,0;9.563,0,0;10.299,0,0;10.299,0,0;11.035,0,0;11.035,0,0;11.771,0,0;11.771,0,0;12.506,0,0;12.506,0,0;13.241,0,0;13.241,0,0;13.977,0,0;13.977,0,0" calcMode="discrete"/><animateTransform attributeName="transform" additive="sum" type="scale" repeatCount="indefinite" dur="10s" keyTimes="0;.05399;.054;.49999;.5;.55399;.554;1" values=".777,.777;.777,.777;.776,.776;.776,.776;.777,.777;.777,.777;.776,.776;.776,.776" calcMode="discrete"/><animateTransform attributeName="transform" additive="sum" type="translate" repeatCount="indefinite" dur="10s" keyTimes="0;.00799;.008;.01299;.013;.01699;.017;.02099;.021;.02499;.025;.02899;.029;.03299;.033;.03799;.038;.04199;.042;.04599;.046;.04999;.05;.05399;.054;.05799;.058;.06299;.063;.06699;.067;.07099;.071;.07499;.075;.07899;.079;.49999;.5;.50799;.508;.51299;.513;.51699;.517;.52099;.521;.52499;.525;.52899;.529;.53299;.533;.53799;.538;.54199;.542;.54599;.546;.54999;.55;.55399;.554;.55799;.558;.56299;.563;.56699;.567;.57099;.571;.57499;.575;.57899;.579;1" values="-.1,-.1;-.1,-.1;-.2,-.2;-.2,-.2;-.05,-.15;-.05,-.15;-.1,-.1;-.1,-.1;0,-.15;0,-.15;.05,-.1;.05,-.1;0,-.15;0,-.15;.05,-.15;.05,-.15;0,-.1;0,-.1;-.05,-.15;-.05,-.15;-.05,-.1;-.05,-.1;.05,-.1;.05,-.1;-.05,-.15;-.05,-.15;0,-.1;0,-.1;.05,-.1;.05,-.1;0,-.15;0,-.15;0,-.2;0,-.2;0,-.05;0,-.05;.05,-.1;.05,-.1;-.1,-.1;-.1,-.1;-.2,-.2;-.2,-.2;-.05,-.15;-.05,-.15;-.1,-.1;-.1,-.1;0,-.15;0,-.15;.05,-.1;.05,-.1;0,-.15;0,-.15;.05,-.15;.05,-.15;0,-.1;0,-.1;-.05,-.15;-.05,-.15;-.05,-.1;-.05,-.1;.05,-.1;.05,-.1;-.05,-.15;-.05,-.15;0,-.1;0,-.1;.05,-.1;.05,-.1;0,-.15;0,-.15;0,-.2;0,-.2;0,-.05;0,-.05;.05,-.1;.05,-.1" calcMode="discrete"/><animate attributeName="opacity" repeatCount="indefinite" dur="10s" keyTimes="0;.00399;.004;.00799;.008;.01299;.013;.01699;.017;.02099;.021;.02499;.025;.02899;.029;.03299;.033;.03799;.038;.04199;.042;.04599;.046;.04999;.05;.05399;.054;.05799;.058;.06299;.063;.06699;.067;.07099;.071;.07499;.075;.07899;.079;.50399;.504;.50799;.508;.51299;.513;.51699;.517;.52099;.521;.52499;.525;.52899;.529;.53299;.533;.53799;.538;.54199;.542;.54599;.546;.54999;.55;.55399;.554;.55799;.558;.56299;.563;.56699;.567;.57099;.571;.57499;.575;.57899;.579;1" values="0;0;.11;.11;.22;.22;.33;.33;.44;.44;.55;.55;.66;.66;.77;.77;.88;.88;1;1;.9;.9;.8;.8;.7;.7;.6;.6;.49;.49;.39;.39;.3;.3;.2;.2;.09;.09;0;0;.11;.11;.22;.22;.33;.33;.44;.44;.55;.55;.66;.66;.77;.77;.88;.88;1;1;.9;.9;.8;.8;.7;.7;.6;.6;.49;.49;.39;.39;.3;.3;.2;.2;.09;.09;0;0" calcMode="discrete"/></use><animate attributeName="display" repeatCount="indefinite" dur="10s" keyTimes="0;.083;.5;.583;1" values="inline;none;inline;none;none"/></g><g display="none"><use xlink:href="#steam-4" transform="translate(.7 -1.9)"><animateTransform attributeName="transform" additive="replace" type="translate" repeatCount="indefinite" dur="10s" keyTimes="0;.33799;.338;.34199;.342;.34599;.346;.34999;.35;.35399;.354;.35799;.358;.36299;.363;.36699;.367;.37099;.371;.37499;.375;.37899;.379;.38299;.383;.38799;.388;.39199;.392;.39599;.396;.39999;.4;.40399;.404;.40799;.408;.41299;.413;.83299;.833;.83799;.838;.84199;.842;.84599;.846;.84999;.85;.85399;.854;.85799;.858;.86299;.863;.86699;.867;.87099;.871;.87499;.875;.87899;.879;.88299;.883;.88799;.888;.89199;.892;.89599;.896;.89999;.9;.90399;.904;.90799;.908;.91299;.913;1" values=".7,-1.9;.7,-1.9;1.249,-2.701;1.249,-2.701;1.797,-3.501;1.797,-3.501;2.343,-4.302;2.343,-4.302;2.944,-5.056;2.944,-5.056;3.439,-5.853;3.439,-5.853;3.995,-6.554;3.995,-6.554;4.639,-7.365;4.639,-7.365;5.032,-8.199;5.032,-8.199;5.685,-8.963;5.685,-8.963;5.576,-10.163;5.576,-10.163;5.441,-11.208;5.441,-11.208;5.33,-12.417;5.33,-12.417;5.229,-13.558;5.229,-13.558;5.236,-14.681;5.236,-14.681;5.124,-15.87;5.124,-15.87;5.033,-16.985;5.033,-16.985;4.906,-18.234;4.906,-18.234;4.77,-19.31;4.77,-19.31;4.669,-20.51;4.669,-20.51;.7,-1.9;.7,-1.9;1.249,-2.701;1.249,-2.701;1.797,-3.501;1.797,-3.501;2.343,-4.302;2.343,-4.302;2.944,-5.056;2.944,-5.056;3.439,-5.853;3.439,-5.853;3.995,-6.554;3.995,-6.554;4.639,-7.365;4.639,-7.365;5.032,-8.199;5.032,-8.199;5.685,-8.963;5.685,-8.963;5.576,-10.163;5.576,-10.163;5.441,-11.208;5.441,-11.208;5.33,-12.417;5.33,-12.417;5.229,-13.558;5.229,-13.558;5.236,-14.681;5.236,-14.681;5.124,-15.87;5.124,-15.87;5.033,-16.985;5.033,-16.985;4.906,-18.234;4.906,-18.234;4.77,-19.31;4.77,-19.31;4.669,-20.51;4.669,-20.51" calcMode="discrete"/><animateTransform attributeName="transform" additive="sum" type="rotate" repeatCount="indefinite" dur="10s" keyTimes="0;.33799;.338;.34199;.342;.34599;.346;.34999;.35;.35399;.354;.35799;.358;.36299;.363;.36699;.367;.37099;.371;.37499;.375;.37899;.379;.38299;.383;.38799;.388;.39199;.392;.39599;.396;.39999;.4;.40399;.404;.40799;.408;.41299;.413;.83299;.833;.83799;.838;.84199;.842;.84599;.846;.84999;.85;.85399;.854;.85799;.858;.86299;.863;.86699;.867;.87099;.871;.87499;.875;.87899;.879;.88299;.883;.88799;.888;.89199;.892;.89599;.896;.89999;.9;.90399;.904;.90799;.908;.91299;.913;1" values="0,0,0;0,0,0;-.892,0,0;-.892,0,0;-1.784,0,0;-1.784,0,0;-2.676,0,0;-2.676,0,0;-3.568,0,0;-3.568,0,0;-4.461,0,0;-4.461,0,0;-5.353,0,0;-5.353,0,0;-6.245,0,0;-6.245,0,0;-7.138,0,0;-7.138,0,0;-8.03,0,0;-8.03,0,0;-8.922,0,0;-8.922,0,0;-9.814,0,0;-9.814,0,0;-10.707,0,0;-10.707,0,0;-11.599,0,0;-11.599,0,0;-12.491,0,0;-12.491,0,0;-13.384,0,0;-13.384,0,0;-14.275,0,0;-14.275,0,0;-15.168,0,0;-15.168,0,0;-16.06,0,0;-16.06,0,0;-16.952,0,0;-16.952,0,0;0,0,0;0,0,0;-.892,0,0;-.892,0,0;-1.784,0,0;-1.784,0,0;-2.676,0,0;-2.676,0,0;-3.568,0,0;-3.568,0,0;-4.461,0,0;-4.461,0,0;-5.353,0,0;-5.353,0,0;-6.245,0,0;-6.245,0,0;-7.138,0,0;-7.138,0,0;-8.03,0,0;-8.03,0,0;-8.922,0,0;-8.922,0,0;-9.814,0,0;-9.814,0,0;-10.707,0,0;-10.707,0,0;-11.599,0,0;-11.599,0,0;-12.491,0,0;-12.491,0,0;-13.384,0,0;-13.384,0,0;-14.275,0,0;-14.275,0,0;-15.168,0,0;-15.168,0,0;-16.06,0,0;-16.06,0,0;-16.952,0,0;-16.952,0,0" calcMode="discrete"/><animateTransform attributeName="transform" additive="sum" type="scale" repeatCount="indefinite" dur="10s" keyTimes="0;.37499;.375;.83299;.833;.87499;.875;1" values="1,1;1,1;1,.999;1,.999;1,1;1,1;1,.999;1,.999" calcMode="discrete"/><animateTransform attributeName="transform" additive="sum" type="translate" repeatCount="indefinite" dur="10s" keyTimes="0;.33799;.338;.34599;.346;.34999;.35;.35399;.354;.35799;.358;.36299;.363;.36699;.367;.37099;.371;.37499;.375;.37899;.379;.38299;.383;.38799;.388;.39199;.392;.39599;.396;.39999;.4;.40399;.404;.40799;.408;.83299;.833;.83799;.838;.84599;.846;.84999;.85;.85399;.854;.85799;.858;.86299;.863;.86699;.867;.87099;.871;.87499;.875;.87899;.879;.88299;.883;.88799;.888;.89199;.892;.89599;.896;.89999;.9;.90399;.904;.90799;.908;1" values="0,0;0,0;-.05,.1;-.05,.1;-.05,.15;-.05,.15;-.1,.1;-.1,.1;-.05,.15;-.05,.15;-.05,.05;-.05,.05;-.15,.1;-.15,.1;0,.15;0,.15;-.1,.1;-.1,.1;-.1,.15;-.1,.15;-.05,.05;-.05,.05;-.1,.1;-.1,.1;-.05,.1;-.05,.1;-.15,.05;-.15,.05;-.1,.1;-.1,.1;-.15,.05;-.15,.05;-.15,.15;-.15,.15;-.05,.1;-.05,.1;0,0;0,0;-.05,.1;-.05,.1;-.05,.15;-.05,.15;-.1,.1;-.1,.1;-.05,.15;-.05,.15;-.05,.05;-.05,.05;-.15,.1;-.15,.1;0,.15;0,.15;-.1,.1;-.1,.1;-.1,.15;-.1,.15;-.05,.05;-.05,.05;-.1,.1;-.1,.1;-.05,.1;-.05,.1;-.15,.05;-.15,.05;-.1,.1;-.1,.1;-.15,.05;-.15,.05;-.15,.15;-.15,.15;-.05,.1;-.05,.1" calcMode="discrete"/><animate attributeName="opacity" repeatCount="indefinite" dur="10s" keyTimes="0;.33799;.338;.34199;.342;.34599;.346;.34999;.35;.35399;.354;.35799;.358;.36299;.363;.36699;.367;.37099;.371;.37499;.375;.37899;.379;.38299;.383;.38799;.388;.39199;.392;.39599;.396;.39999;.4;.40399;.404;.40799;.408;.41299;.413;.83799;.838;.84199;.842;.84599;.846;.84999;.85;.85399;.854;.85799;.858;.86299;.863;.86699;.867;.87099;.871;.87499;.875;.87899;.879;.88299;.883;.88799;.888;.89199;.892;.89599;.896;.89999;.9;.90399;.904;.90799;.908;.91299;.913;1" values="0;0;.11;.11;.22;.22;.33;.33;.44;.44;.55;.55;.66;.66;.77;.77;.88;.88;1;1;.9;.9;.8;.8;.7;.7;.6;.6;.49;.49;.39;.39;.3;.3;.2;.2;.09;.09;0;0;.11;.11;.22;.22;.33;.33;.44;.44;.55;.55;.66;.66;.77;.77;.88;.88;1;1;.9;.9;.8;.8;.7;.7;.6;.6;.49;.49;.39;.39;.3;.3;.2;.2;.09;.09;0;0" calcMode="discrete"/></use><animate attributeName="display" repeatCount="indefinite" dur="10s" keyTimes="0;.333;.5;.833;1" values="none;inline;none;inline;inline"/></g><g display="none"><use xlink:href="#steam-4" transform="translate(.7 -1.9)"><animateTransform attributeName="transform" additive="replace" type="translate" repeatCount="indefinite" dur="10s" keyTimes="0;.02099;.021;.02499;.025;.02899;.029;.03299;.033;.03799;.038;.04199;.042;.04599;.046;.04999;.05;.05399;.054;.05799;.058;.06299;.063;.06699;.067;.07099;.071;.07499;.075;.07899;.079;.08299;.083;.08799;.088;.09199;.092;.09599;.096;.51699;.517;.52099;.521;.52499;.525;.52899;.529;.53299;.533;.53799;.538;.54199;.542;.54599;.546;.54999;.55;.55399;.554;.55799;.558;.56299;.563;.56699;.567;.57099;.571;.57499;.575;.57899;.579;.58299;.583;.58799;.588;.59199;.592;.59599;.596;1" values=".7,-1.9;.7,-1.9;1.249,-2.701;1.249,-2.701;1.797,-3.501;1.797,-3.501;2.343,-4.302;2.343,-4.302;2.944,-5.056;2.944,-5.056;3.439,-5.853;3.439,-5.853;3.995,-6.554;3.995,-6.554;4.639,-7.365;4.639,-7.365;5.032,-8.199;5.032,-8.199;5.685,-8.963;5.685,-8.963;5.576,-10.163;5.576,-10.163;5.441,-11.208;5.441,-11.208;5.33,-12.417;5.33,-12.417;5.229,-13.558;5.229,-13.558;5.236,-14.681;5.236,-14.681;5.124,-15.87;5.124,-15.87;5.033,-16.985;5.033,-16.985;4.906,-18.234;4.906,-18.234;4.77,-19.31;4.77,-19.31;4.669,-20.51;4.669,-20.51;.7,-1.9;.7,-1.9;1.249,-2.701;1.249,-2.701;1.797,-3.501;1.797,-3.501;2.343,-4.302;2.343,-4.302;2.944,-5.056;2.944,-5.056;3.439,-5.853;3.439,-5.853;3.995,-6.554;3.995,-6.554;4.639,-7.365;4.639,-7.365;5.032,-8.199;5.032,-8.199;5.685,-8.963;5.685,-8.963;5.576,-10.163;5.576,-10.163;5.441,-11.208;5.441,-11.208;5.33,-12.417;5.33,-12.417;5.229,-13.558;5.229,-13.558;5.236,-14.681;5.236,-14.681;5.124,-15.87;5.124,-15.87;5.033,-16.985;5.033,-16.985;4.906,-18.234;4.906,-18.234;4.77,-19.31;4.77,-19.31;4.669,-20.51;4.669,-20.51" calcMode="discrete"/><animateTransform attributeName="transform" additive="sum" type="rotate" repeatCount="indefinite" dur="10s" keyTimes="0;.02099;.021;.02499;.025;.02899;.029;.03299;.033;.03799;.038;.04199;.042;.04599;.046;.04999;.05;.05399;.054;.05799;.058;.06299;.063;.06699;.067;.07099;.071;.07499;.075;.07899;.079;.08299;.083;.08799;.088;.09199;.092;.09599;.096;.51699;.517;.52099;.521;.52499;.525;.52899;.529;.53299;.533;.53799;.538;.54199;.542;.54599;.546;.54999;.55;.55399;.554;.55799;.558;.56299;.563;.56699;.567;.57099;.571;.57499;.575;.57899;.579;.58299;.583;.58799;.588;.59199;.592;.59599;.596;1" values="0,0,0;0,0,0;-.892,0,0;-.892,0,0;-1.784,0,0;-1.784,0,0;-2.676,0,0;-2.676,0,0;-3.568,0,0;-3.568,0,0;-4.461,0,0;-4.461,0,0;-5.353,0,0;-5.353,0,0;-6.245,0,0;-6.245,0,0;-7.138,0,0;-7.138,0,0;-8.03,0,0;-8.03,0,0;-8.922,0,0;-8.922,0,0;-9.814,0,0;-9.814,0,0;-10.707,0,0;-10.707,0,0;-11.599,0,0;-11.599,0,0;-12.491,0,0;-12.491,0,0;-13.384,0,0;-13.384,0,0;-14.275,0,0;-14.275,0,0;-15.168,0,0;-15.168,0,0;-16.06,0,0;-16.06,0,0;-16.952,0,0;-16.952,0,0;0,0,0;0,0,0;-.892,0,0;-.892,0,0;-1.784,0,0;-1.784,0,0;-2.676,0,0;-2.676,0,0;-3.568,0,0;-3.568,0,0;-4.461,0,0;-4.461,0,0;-5.353,0,0;-5.353,0,0;-6.245,0,0;-6.245,0,0;-7.138,0,0;-7.138,0,0;-8.03,0,0;-8.03,0,0;-8.922,0,0;-8.922,0,0;-9.814,0,0;-9.814,0,0;-10.707,0,0;-10.707,0,0;-11.599,0,0;-11.599,0,0;-12.491,0,0;-12.491,0,0;-13.384,0,0;-13.384,0,0;-14.275,0,0;-14.275,0,0;-15.168,0,0;-15.168,0,0;-16.06,0,0;-16.06,0,0;-16.952,0,0;-16.952,0,0" calcMode="discrete"/><animateTransform attributeName="transform" additive="sum" type="scale" repeatCount="indefinite" dur="10s" keyTimes="0;.05799;.058;.51699;.517;.55799;.558;1" values="1,1;1,1;1,.999;1,.999;1,1;1,1;1,.999;1,.999" calcMode="discrete"/><animateTransform attributeName="transform" additive="sum" type="translate" repeatCount="indefinite" dur="10s" keyTimes="0;.02099;.021;.02899;.029;.03299;.033;.03799;.038;.04199;.042;.04599;.046;.04999;.05;.05399;.054;.05799;.058;.06299;.063;.06699;.067;.07099;.071;.07499;.075;.07899;.079;.08299;.083;.08799;.088;.09199;.092;.51699;.517;.52099;.521;.52899;.529;.53299;.533;.53799;.538;.54199;.542;.54599;.546;.54999;.55;.55399;.554;.55799;.558;.56299;.563;.56699;.567;.57099;.571;.57499;.575;.57899;.579;.58299;.583;.58799;.588;.59199;.592;1" values="0,0;0,0;-.05,.1;-.05,.1;-.05,.15;-.05,.15;-.1,.1;-.1,.1;-.05,.15;-.05,.15;-.05,.05;-.05,.05;-.15,.1;-.15,.1;0,.15;0,.15;-.1,.1;-.1,.1;-.1,.15;-.1,.15;-.05,.05;-.05,.05;-.1,.1;-.1,.1;-.05,.1;-.05,.1;-.15,.05;-.15,.05;-.1,.1;-.1,.1;-.15,.05;-.15,.05;-.15,.15;-.15,.15;-.05,.1;-.05,.1;0,0;0,0;-.05,.1;-.05,.1;-.05,.15;-.05,.15;-.1,.1;-.1,.1;-.05,.15;-.05,.15;-.05,.05;-.05,.05;-.15,.1;-.15,.1;0,.15;0,.15;-.1,.1;-.1,.1;-.1,.15;-.1,.15;-.05,.05;-.05,.05;-.1,.1;-.1,.1;-.05,.1;-.05,.1;-.15,.05;-.15,.05;-.1,.1;-.1,.1;-.15,.05;-.15,.05;-.15,.15;-.15,.15;-.05,.1;-.05,.1" calcMode="discrete"/><animate attributeName="opacity" repeatCount="indefinite" dur="10s" keyTimes="0;.02099;.021;.02499;.025;.02899;.029;.03299;.033;.03799;.038;.04199;.042;.04599;.046;.04999;.05;.05399;.054;.05799;.058;.06299;.063;.06699;.067;.07099;.071;.07499;.075;.07899;.079;.08299;.083;.08799;.088;.09199;.092;.09599;.096;.52099;.521;.52499;.525;.52899;.529;.53299;.533;.53799;.538;.54199;.542;.54599;.546;.54999;.55;.55399;.554;.55799;.558;.56299;.563;.56699;.567;.57099;.571;.57499;.575;.57899;.579;.58299;.583;.58799;.588;.59199;.592;.59599;.596;1" values="0;0;.11;.11;.22;.22;.33;.33;.44;.44;.55;.55;.66;.66;.77;.77;.88;.88;1;1;.9;.9;.8;.8;.7;.7;.6;.6;.49;.49;.39;.39;.3;.3;.2;.2;.09;.09;0;0;.11;.11;.22;.22;.33;.33;.44;.44;.55;.55;.66;.66;.77;.77;.88;.88;1;1;.9;.9;.8;.8;.7;.7;.6;.6;.49;.49;.39;.39;.3;.3;.2;.2;.09;.09;0;0" calcMode="discrete"/></use><animate attributeName="display" repeatCount="indefinite" dur="10s" keyTimes="0;.017;.1;.517;.6;1" values="none;inline;none;inline;none;none"/></g><g display="none"><use xlink:href="#steam-3" transform="translate(-7 -21.25)"><animateTransform attributeName="transform" additive="replace" type="translate" repeatCount="indefinite" dur="10s" keyTimes="0;.36299;.363;.36699;.367;.37099;.371;.37499;.375;.37899;.379;.38299;.383;.38799;.388;.39199;.392;.39599;.396;.39999;.4;.40399;.404;.40799;.408;.41299;.413;.41699;.417;.42099;.421;.42499;.425;.42899;.429;.43299;.433;.43799;.438;.85799;.858;.86299;.863;.86699;.867;.87099;.871;.87499;.875;.87899;.879;.88299;.883;.88799;.888;.89199;.892;.89599;.896;.89999;.9;.90399;.904;.90799;.908;.91299;.913;.91699;.917;.92099;.921;.92499;.925;.92899;.929;.93299;.933;.93799;.938;1" values="-7,-21.25;-7,-21.25;-7.149,-22.45;-7.149,-22.45;-7.398,-23.502;-7.398,-23.502;-7.497,-24.601;-7.497,-24.601;-7.744,-25.754;-7.744,-25.754;-7.895,-26.855;-7.895,-26.855;-8.097,-27.906;-8.097,-27.906;-8.289,-29.107;-8.289,-29.107;-8.346,-30.1;-8.346,-30.1;-8.536,-31.349;-8.536,-31.349;-8.084,-31.854;-8.084,-31.854;-7.682,-32.411;-7.682,-32.411;-7.087,-32.899;-7.087,-32.899;-6.735,-33.42;-6.735,-33.42;-6.234,-33.964;-6.234,-33.964;-5.783,-34.514;-5.783,-34.514;-5.282,-35.015;-5.282,-35.015;-4.839,-35.526;-4.839,-35.526;-4.27,-36.157;-4.27,-36.157;-3.828,-36.668;-3.828,-36.668;-7,-21.25;-7,-21.25;-7.149,-22.45;-7.149,-22.45;-7.398,-23.502;-7.398,-23.502;-7.497,-24.601;-7.497,-24.601;-7.744,-25.754;-7.744,-25.754;-7.895,-26.855;-7.895,-26.855;-8.097,-27.906;-8.097,-27.906;-8.289,-29.107;-8.289,-29.107;-8.346,-30.1;-8.346,-30.1;-8.536,-31.349;-8.536,-31.349;-8.084,-31.854;-8.084,-31.854;-7.682,-32.411;-7.682,-32.411;-7.087,-32.899;-7.087,-32.899;-6.735,-33.42;-6.735,-33.42;-6.234,-33.964;-6.234,-33.964;-5.783,-34.514;-5.783,-34.514;-5.282,-35.015;-5.282,-35.015;-4.839,-35.526;-4.839,-35.526;-4.27,-36.157;-4.27,-36.157;-3.828,-36.668;-3.828,-36.668" calcMode="discrete"/><animateTransform attributeName="transform" additive="sum" type="rotate" repeatCount="indefinite" dur="10s" keyTimes="0;.36299;.363;.36699;.367;.37099;.371;.37499;.375;.37899;.379;.38299;.383;.38799;.388;.39199;.392;.39599;.396;.39999;.4;.40399;.404;.40799;.408;.41299;.413;.41699;.417;.42099;.421;.42499;.425;.42899;.429;.43299;.433;.43799;.438;.85799;.858;.86299;.863;.86699;.867;.87099;.871;.87499;.875;.87899;.879;.88299;.883;.88799;.888;.89199;.892;.89599;.896;.89999;.9;.90399;.904;.90799;.908;.91299;.913;.91699;.917;.92099;.921;.92499;.925;.92899;.929;.93299;.933;.93799;.938;1" values="0,0,0;0,0,0;.615,0,0;.615,0,0;1.232,0,0;1.232,0,0;1.848,0,0;1.848,0,0;2.464,0,0;2.464,0,0;3.08,0,0;3.08,0,0;3.697,0,0;3.697,0,0;4.312,0,0;4.312,0,0;4.928,0,0;4.928,0,0;5.545,0,0;5.545,0,0;6.161,0,0;6.161,0,0;6.776,0,0;6.776,0,0;7.393,0,0;7.393,0,0;8.008,0,0;8.008,0,0;8.625,0,0;8.625,0,0;9.24,0,0;9.24,0,0;9.857,0,0;9.857,0,0;10.473,0,0;10.473,0,0;11.089,0,0;11.089,0,0;11.704,0,0;11.704,0,0;0,0,0;0,0,0;.615,0,0;.615,0,0;1.232,0,0;1.232,0,0;1.848,0,0;1.848,0,0;2.464,0,0;2.464,0,0;3.08,0,0;3.08,0,0;3.697,0,0;3.697,0,0;4.312,0,0;4.312,0,0;4.928,0,0;4.928,0,0;5.545,0,0;5.545,0,0;6.161,0,0;6.161,0,0;6.776,0,0;6.776,0,0;7.393,0,0;7.393,0,0;8.008,0,0;8.008,0,0;8.625,0,0;8.625,0,0;9.24,0,0;9.24,0,0;9.857,0,0;9.857,0,0;10.473,0,0;10.473,0,0;11.089,0,0;11.089,0,0;11.704,0,0;11.704,0,0" calcMode="discrete"/><animateTransform attributeName="transform" additive="sum" type="scale" repeatCount="indefinite" dur="10s" keyTimes="0;.41299;.413;.85799;.858;.91299;.913;1" values="1,1;1,1;1,.999;1,.999;1,1;1,1;1,.999;1,.999" calcMode="discrete"/><animateTransform attributeName="transform" additive="sum" type="translate" repeatCount="indefinite" dur="10s" keyTimes="0;.36299;.363;.36699;.367;.37099;.371;.37499;.375;.37899;.379;.38299;.383;.38799;.388;.39199;.392;.39599;.396;.39999;.4;.40399;.404;.40799;.408;.41299;.413;.41699;.417;.42899;.429;.43299;.433;.43799;.438;.85799;.858;.86299;.863;.86699;.867;.87099;.871;.87499;.875;.87899;.879;.88299;.883;.88799;.888;.89199;.892;.89599;.896;.89999;.9;.90399;.904;.90799;.908;.91299;.913;.91699;.917;.92899;.929;.93299;.933;.93799;.938;1" values="0,0;0,0;.05,.15;.05,.15;.1,.1;.1,.1;.05,.1;.05,.1;.1,.15;.1,.15;.1,.1;.1,.1;.1,.05;.1,.05;.1,.15;.1,.15;0,.05;0,.05;0,.15;0,.15;.05,.15;.05,.15;.1,.15;.1,.15;0,.1;0,.1;.15,.1;.15,.1;.1,.1;.1,.1;.15,.05;.15,.05;.05,.15;.05,.15;.1,.1;.1,.1;0,0;0,0;.05,.15;.05,.15;.1,.1;.1,.1;.05,.1;.05,.1;.1,.15;.1,.15;.1,.1;.1,.1;.1,.05;.1,.05;.1,.15;.1,.15;0,.05;0,.05;0,.15;0,.15;.05,.15;.05,.15;.1,.15;.1,.15;0,.1;0,.1;.15,.1;.15,.1;.1,.1;.1,.1;.15,.05;.15,.05;.05,.15;.05,.15;.1,.1;.1,.1" calcMode="discrete"/><animate attributeName="opacity" repeatCount="indefinite" dur="10s" keyTimes="0;.36299;.363;.36699;.367;.37099;.371;.37499;.375;.37899;.379;.38299;.383;.38799;.388;.39199;.392;.39599;.396;.39999;.4;.40399;.404;.40799;.408;.41299;.413;.41699;.417;.42099;.421;.42499;.425;.42899;.429;.43299;.433;.43799;.438;.86299;.863;.86699;.867;.87099;.871;.87499;.875;.87899;.879;.88299;.883;.88799;.888;.89199;.892;.89599;.896;.89999;.9;.90399;.904;.90799;.908;.91299;.913;.91699;.917;.92099;.921;.92499;.925;.92899;.929;.93299;.933;.93799;.938;1" values="0;0;.11;.11;.22;.22;.33;.33;.44;.44;.55;.55;.66;.66;.77;.77;.88;.88;1;1;.9;.9;.8;.8;.7;.7;.6;.6;.49;.49;.39;.39;.3;.3;.2;.2;.09;.09;0;0;.11;.11;.22;.22;.33;.33;.44;.44;.55;.55;.66;.66;.77;.77;.88;.88;1;1;.9;.9;.8;.8;.7;.7;.6;.6;.49;.49;.39;.39;.3;.3;.2;.2;.09;.09;0;0" calcMode="discrete"/></use><animate attributeName="display" repeatCount="indefinite" dur="10s" keyTimes="0;.358;.5;.858;1" values="none;inline;none;inline;inline"/></g><g display="none"><use xlink:href="#steam-3" transform="translate(-7 -21.25)"><animateTransform attributeName="transform" additive="replace" type="translate" repeatCount="indefinite" dur="10s" keyTimes="0;.04199;.042;.04599;.046;.04999;.05;.05399;.054;.05799;.058;.06299;.063;.06699;.067;.07099;.071;.07499;.075;.07899;.079;.08299;.083;.08799;.088;.09199;.092;.09599;.096;.09999;.1;.10399;.104;.10799;.108;.11299;.113;.11699;.117;.53799;.538;.54199;.542;.54599;.546;.54999;.55;.55399;.554;.55799;.558;.56299;.563;.56699;.567;.57099;.571;.57499;.575;.57899;.579;.58299;.583;.58799;.588;.59199;.592;.59599;.596;.59999;.6;.60399;.604;.60799;.608;.61299;.613;.61699;.617;1" values="-7,-21.25;-7,-21.25;-7.149,-22.45;-7.149,-22.45;-7.398,-23.502;-7.398,-23.502;-7.497,-24.601;-7.497,-24.601;-7.744,-25.754;-7.744,-25.754;-7.895,-26.855;-7.895,-26.855;-8.097,-27.906;-8.097,-27.906;-8.289,-29.107;-8.289,-29.107;-8.346,-30.1;-8.346,-30.1;-8.536,-31.349;-8.536,-31.349;-8.084,-31.854;-8.084,-31.854;-7.682,-32.411;-7.682,-32.411;-7.087,-32.899;-7.087,-32.899;-6.735,-33.42;-6.735,-33.42;-6.234,-33.964;-6.234,-33.964;-5.783,-34.514;-5.783,-34.514;-5.282,-35.015;-5.282,-35.015;-4.839,-35.526;-4.839,-35.526;-4.27,-36.157;-4.27,-36.157;-3.828,-36.668;-3.828,-36.668;-7,-21.25;-7,-21.25;-7.149,-22.45;-7.149,-22.45;-7.398,-23.502;-7.398,-23.502;-7.497,-24.601;-7.497,-24.601;-7.744,-25.754;-7.744,-25.754;-7.895,-26.855;-7.895,-26.855;-8.097,-27.906;-8.097,-27.906;-8.289,-29.107;-8.289,-29.107;-8.346,-30.1;-8.346,-30.1;-8.536,-31.349;-8.536,-31.349;-8.084,-31.854;-8.084,-31.854;-7.682,-32.411;-7.682,-32.411;-7.087,-32.899;-7.087,-32.899;-6.735,-33.42;-6.735,-33.42;-6.234,-33.964;-6.234,-33.964;-5.783,-34.514;-5.783,-34.514;-5.282,-35.015;-5.282,-35.015;-4.839,-35.526;-4.839,-35.526;-4.27,-36.157;-4.27,-36.157;-3.828,-36.668;-3.828,-36.668" calcMode="discrete"/><animateTransform attributeName="transform" additive="sum" type="rotate" repeatCount="indefinite" dur="10s" keyTimes="0;.04199;.042;.04599;.046;.04999;.05;.05399;.054;.05799;.058;.06299;.063;.06699;.067;.07099;.071;.07499;.075;.07899;.079;.08299;.083;.08799;.088;.09199;.092;.09599;.096;.09999;.1;.10399;.104;.10799;.108;.11299;.113;.11699;.117;.53799;.538;.54199;.542;.54599;.546;.54999;.55;.55399;.554;.55799;.558;.56299;.563;.56699;.567;.57099;.571;.57499;.575;.57899;.579;.58299;.583;.58799;.588;.59199;.592;.59599;.596;.59999;.6;.60399;.604;.60799;.608;.61299;.613;.61699;.617;1" values="0,0,0;0,0,0;.615,0,0;.615,0,0;1.232,0,0;1.232,0,0;1.848,0,0;1.848,0,0;2.464,0,0;2.464,0,0;3.08,0,0;3.08,0,0;3.697,0,0;3.697,0,0;4.312,0,0;4.312,0,0;4.928,0,0;4.928,0,0;5.545,0,0;5.545,0,0;6.161,0,0;6.161,0,0;6.776,0,0;6.776,0,0;7.393,0,0;7.393,0,0;8.008,0,0;8.008,0,0;8.625,0,0;8.625,0,0;9.24,0,0;9.24,0,0;9.857,0,0;9.857,0,0;10.473,0,0;10.473,0,0;11.089,0,0;11.089,0,0;11.704,0,0;11.704,0,0;0,0,0;0,0,0;.615,0,0;.615,0,0;1.232,0,0;1.232,0,0;1.848,0,0;1.848,0,0;2.464,0,0;2.464,0,0;3.08,0,0;3.08,0,0;3.697,0,0;3.697,0,0;4.312,0,0;4.312,0,0;4.928,0,0;4.928,0,0;5.545,0,0;5.545,0,0;6.161,0,0;6.161,0,0;6.776,0,0;6.776,0,0;7.393,0,0;7.393,0,0;8.008,0,0;8.008,0,0;8.625,0,0;8.625,0,0;9.24,0,0;9.24,0,0;9.857,0,0;9.857,0,0;10.473,0,0;10.473,0,0;11.089,0,0;11.089,0,0;11.704,0,0;11.704,0,0" calcMode="discrete"/><animateTransform attributeName="transform" additive="sum" type="scale" repeatCount="indefinite" dur="10s" keyTimes="0;.09199;.092;.53799;.538;.59199;.592;1" values="1,1;1,1;1,.999;1,.999;1,1;1,1;1,.999;1,.999" calcMode="discrete"/><animateTransform attributeName="transform" additive="sum" type="translate" repeatCount="indefinite" dur="10s" keyTimes="0;.04199;.042;.04599;.046;.04999;.05;.05399;.054;.05799;.058;.06299;.063;.06699;.067;.07099;.071;.07499;.075;.07899;.079;.08299;.083;.08799;.088;.09199;.092;.09599;.096;.10799;.108;.11299;.113;.11699;.117;.53799;.538;.54199;.542;.54599;.546;.54999;.55;.55399;.554;.55799;.558;.56299;.563;.56699;.567;.57099;.571;.57499;.575;.57899;.579;.58299;.583;.58799;.588;.59199;.592;.59599;.596;.60799;.608;.61299;.613;.61699;.617;1" values="0,0;0,0;.05,.15;.05,.15;.1,.1;.1,.1;.05,.1;.05,.1;.1,.15;.1,.15;.1,.1;.1,.1;.1,.05;.1,.05;.1,.15;.1,.15;0,.05;0,.05;0,.15;0,.15;.05,.15;.05,.15;.1,.15;.1,.15;0,.1;0,.1;.15,.1;.15,.1;.1,.1;.1,.1;.15,.05;.15,.05;.05,.15;.05,.15;.1,.1;.1,.1;0,0;0,0;.05,.15;.05,.15;.1,.1;.1,.1;.05,.1;.05,.1;.1,.15;.1,.15;.1,.1;.1,.1;.1,.05;.1,.05;.1,.15;.1,.15;0,.05;0,.05;0,.15;0,.15;.05,.15;.05,.15;.1,.15;.1,.15;0,.1;0,.1;.15,.1;.15,.1;.1,.1;.1,.1;.15,.05;.15,.05;.05,.15;.05,.15;.1,.1;.1,.1" calcMode="discrete"/><animate attributeName="opacity" repeatCount="indefinite" dur="10s" keyTimes="0;.04199;.042;.04599;.046;.04999;.05;.05399;.054;.05799;.058;.06299;.063;.06699;.067;.07099;.071;.07499;.075;.07899;.079;.08299;.083;.08799;.088;.09199;.092;.09599;.096;.09999;.1;.10399;.104;.10799;.108;.11299;.113;.11699;.117;.54199;.542;.54599;.546;.54999;.55;.55399;.554;.55799;.558;.56299;.563;.56699;.567;.57099;.571;.57499;.575;.57899;.579;.58299;.583;.58799;.588;.59199;.592;.59599;.596;.59999;.6;.60399;.604;.60799;.608;.61299;.613;.61699;.617;1" values="0;0;.11;.11;.22;.22;.33;.33;.44;.44;.55;.55;.66;.66;.77;.77;.88;.88;1;1;.9;.9;.8;.8;.7;.7;.6;.6;.49;.49;.39;.39;.3;.3;.2;.2;.09;.09;0;0;.11;.11;.22;.22;.33;.33;.44;.44;.55;.55;.66;.66;.77;.77;.88;.88;1;1;.9;.9;.8;.8;.7;.7;.6;.6;.49;.49;.39;.39;.3;.3;.2;.2;.09;.09;0;0" calcMode="discrete"/></use><animate attributeName="display" repeatCount="indefinite" dur="10s" keyTimes="0;.038;.121;.538;.621;1" values="none;inline;none;inline;none;none"/></g></g><path fill="#064599" stroke="none" d="M669.9 145.4Q666.795 137.052 652.9 131.4 636.05 124.65 616.3 133.4 597.55 141.7 595.7 165.1 594.846 175.407 598.05 189.85 601.257 204.281 602.95 215.7 604.691 227.168 604.45 236.6 604.252 246.041 599.65 256.95 597.3 262.45 594.75 266.15 612.193 266.155 626.8 260.7 641.466 255.231 658.5 238.45 675.582 221.729 673.5 200.1 673.230 187.593 673.15 170.65 673.063 153.747 669.9 145.4Z"/><path fill="#E50717" stroke="none" d="M706.25 237.15Q701.3 219.6 690.8 211.55 687.65 208.95 684.25 207.8L681.65 207.1 659.9 218.2 659.65 218.55Q651.25 243.35 636.75 251.65 622.1 259.95 619.2 269.8 616.3 279.75 623.75 293.2 627.5 299.85 631.85 304.55L624.1 342.9Q633.45 369.1 650.8 382.45 659.3 389 666.1 390.4 692.2 361.85 702.5 297.3 705.75 277.15 707.05 255.75L706.25 237.15Z"/><path fill="#FABE9A" stroke="none" d="M675.65 211.65Q679.5 209.2 681.6 207.1L673.9 200.55Q668.05 202.4 649.7 192.6 640.2 187.45 625.45 171.9 612.25 156.8 611.2 155.75 609.9 154.45 608.75 154.95L607.7 155.75Q604.55 158.2 605.8 169.8 606.4 175.65 607.7 180.9 613.05 201.85 621.15 207.45 625.1 210.35 628.05 208.95 635.9 206.05 643.5 199.05L658.8 219.75Q668.15 216.55 675.65 211.65Z"/><path fill="#FABE9A" stroke="none" d="M691.4 234L688.9 230.75Q682.15 227.1 674.4 236.25 667.4 246.75 666.1 248.25 664.7 250.05 644.1 284.2 623.3 318.95 622.6 319.85 621.3 321.75 618.95 321.4L616.85 320.7Q612.55 314.6 590.3 302.65L569 291.9Q558 285.35 554.4 285.25 539.3 288.5 532.75 291.2L529.15 293.2Q530.05 294.15 537.45 294 547.95 293.9 551.6 294.15 554.65 294.35 559.55 295.55 563.15 296.35 565.75 295.9 568.1 295.55 580.25 308.5 589.95 320.9 619.1 342.55 622.25 344.9 625.75 343.6 631.35 341.85 637.35 337.3 641.3 334.25 659.65 312.6 691.15 270.5 693.15 246.4 693.85 238.9 691.4 234Z"/><g id="Shiba-ear-L" transform="translate(313.75 561.95)"><path fill="#FAAA50" stroke="none" d="M-19.4 -14.5Q-19.15 -9.6 -18.2 -5 -14 7.75 2.6 4 10.9 2.25 18.3 -2.2 6.6 -19.55 -3.95 -24.9 -11.55 -28.9 -16.8 -26.1 -19.95 -24.3 -19.4 -14.5Z"/><path fill="#FFF" stroke="none" d="M-14.9 -14.15Q-14.45 -9.1 -13.05 -4.75 -12.35 -2.3 -10.6 -.7 -8.85 .95 -6.5 1.3 .55 2.6 3.8 .7 7.8 -1.6 2.4 -7.8 -4.5 -17.05 -9.75 -19.65L-13.75 -20.45Q-15.4 -19.75 -14.9 -14.15Z"/></g><g id="Shiba" transform="translate(360.9 578.9)"><path fill="#FFF" stroke="none" d="M-76.05 16.65Q-74.75 13.15 -76.4 9.9 -77.8 6.6 -81.3 5.35 -84.7 4.05 -88.1 5.7L-94.4 8.7Q-97.7 10.1 -99 13.65 -100.25 17.05 -98.65 20.4 -97.25 23.7 -93.7 25 -90.35 26.25 -86.95 24.65L-80.6 21.6Q-77.25 20.05 -76.05 16.65Z"/><path fill="#FAAA50" stroke="none" d="M57.8 -41.6Q34.601 -42.845 8.2 -38.3L-14.85 -33.6Q-20.824 -31.314 -24.9 -28.1L-26.6 -28.95Q-31.5 -30.45 -36.9 -30.9 -49.8 -31.95 -56.2 -26.9 -58.3 -25.25 -67.55 -13.1 -68.85 -11.35 -78.55 -5.15 -86.85 .25 -87.45 3.75 -87.699 4.897 -87.7 7 -87.696 6.848 -87.6 6.6 -80.136 21.916 -24.55 23.65 -26.078 23.385 -16.85 24.3 -12.5 24.65 5.95 23.25 15.516 22.526 28.65 20.05L38.25 28.6Q65.386 26.916 87.15 17.35 108.263 5.210 94.6 -17.6 80.992 -40.361 57.8 -41.6Z"/><path fill="#FFF" stroke="none" d="M4.3 14.65Q4.317 14.725 4.3 14.8 -.35 12.15 -8.2 12.7 -11 12.95 -23.4 15.05 -44.45 18.55 -55.35 11.3 -71 -.05 -75.2 -.4 -78.6 -.75 -81.75 .3 -84.7 1.85 -86.7 4.4 -87.299 5.212 -87.65 5.75 -88.130 13.160 -83.4 19.05 -78.6 25 -71 26.3 -28.8 33.4 -7.95 25.1 2.45 20.9 4.3 15.3 4.380 14.975 4.45 14.65L4.3 14.65Z"/><path fill="#000" stroke="none" d="M-76.2 -1.35Q-79.65 -1.55 -82.05 -.5L-83.85 .55Q-84.15 .75 -84.55 1.45 -85.1 2.75 -84.8 4.75 -84.35 7.45 -82.05 10.6 -79.75 13.85 -77.85 13.85 -75.5 13.85 -71.3 10.6 -66.9 7.2 -66.95 5 -67 -.05 -76.2 -1.35Z"/><path fill="#FFF" stroke="none" d="M43.7 21Q44.75 17.05 43.35 13.15 41.95 9.3 38.8 7.9 35.55 6.5 32.35 8.25L26.55 11.75Q23.35 13.5 22.3 17.5 21.15 21.45 22.55 25.35 23.95 29.2 27.25 30.6 30.4 32 33.55 30.25L39.4 26.75Q42.55 25 43.7 21Z"/><path fill="#FAAA50" stroke="none" d="M21.65 1.7Q15.55 -.15 11 4.3L7.6 9.2 5.15 17.4Q-46.656 23.224 -40.45 30 -40.553 30.433 -40.7 30.9 -36.029 35.269 -34.95 40.5L-9.5 39.4Q-8.8 39.4 -7.35 38.9L-7.15 38.9 14.4 34.7Q15.1 34.7 16 34.25L20.8 32.95Q25.95 30.4 27.95 23.5L31 14.1Q36.235 -11.255 31.9 -3.8 27.604 3.701 21.65 1.7Z"/><path fill="#FFF" stroke="none" d="M-28.55 35.05Q-27.3 31.55 -28.9 28.35 -30.3 25.1 -33.85 23.8 -37.2 22.5 -40.6 24.15L-46.95 27.2Q-50.2 28.6 -51.5 32.1 -52.8 35.5 -51.15 38.9 -49.75 42.15 -46.25 43.45 -42.85 44.75 -39.45 43.1L-33.15 40.05Q-29.85 38.55 -28.55 35.05Z"/></g><g id="Shiba-ear-R" transform="translate(337.15 566.7)"><path fill="#FAAA50" stroke="none" d="M15.05 -20Q12.15 -28.45 6.55 -29.85 3 -30.65 -3.4 -23.2L-9.15 -15.55Q-14.85 -3.4 -.35 5.35 6.9 9.8 15.4 11.8 18.8 -8.8 15.05 -20Z"/><path fill="#FFF" stroke="none" d="M7 -19.9L4.65 -23.3Q3 -24.1 -.6 -19.55 -3.75 -15.55 -5.65 -11.6 -7.95 -7.05 -4.95 -2.45 -.6 3.35 2.9 4.2 7.25 5.25 7.7 -2.95 9 -14.3 7 -19.9Z"/></g></g></svg>