<svg width="142" height="177" viewBox="0 0 142 177" fill="none" xmlns="http://www.w3.org/2000/svg">
    <ellipse cx="70.9951" cy="169.829" rx="40.6371" ry="6.77311" fill="#C4DEEE"/>
    <path d="M64.3948 127.113C64.3948 127.113 80.7697 30.9219 53.8702 25.0967" stroke="#129576" stroke-width="1.03571" stroke-miterlimit="10"/>
    <path d="M72.6743 125.348C72.6743 125.348 72.9798 29.0213 100.383 27.2556" stroke="#129576" stroke-width="1.03571" stroke-miterlimit="10"/>
    <path d="M77.5006 125.348C77.5006 125.348 80.296 33.2914 116.865 51.8535" stroke="#129576" stroke-width="1.03571" stroke-miterlimit="10"/>
    <path d="M30.866 61.9651C30.8813 61.9953 32.974 55.0684 24.8323 52.4426C16.7365 49.8318 10.6264 56.5172 11.1763 58.0112C11.7263 59.5052 19.318 55.1741 21.0441 57.483C22.7702 59.792 21.0288 59.5354 21.0288 59.5354C18.5543 59.2034 18.4779 57.9056 16.7518 57.2416C15.0257 56.5775 5.49399 53.7404 3.21799 64.1684C3.21799 64.1684 13.0857 60.0636 15.7589 61.3011C19.5777 63.0818 16.9045 63.9873 16.9045 63.9873C16.9045 63.9873 7.43394 61.452 4.92881 62.9007C-1.19653 66.4321 2.01125 72.2422 1.99598 73.208C2.2251 73.6004 9.60301 68.3336 14.5522 67.6846C18.4473 67.1866 13.9564 70.6123 13.9564 70.6123C13.9564 70.6123 3.55404 70.4765 1.9807 73.208C0.40736 75.9395 0.0407566 78.5805 0.437911 79.1389C0.835065 79.6972 9.96961 72.378 13.4524 73.0722C16.9351 73.7664 17.7294 74.0833 16.6601 75.1548C15.5909 76.2263 7.40339 76.5281 5.76894 78.7616C4.1345 80.9951 2.34731 86.4128 5.37179 89.084C5.37179 89.084 8.39627 81.8402 11.711 81.6893C15.0257 81.5384 17.928 78.9125 18.371 80.9196C18.8139 82.9268 10.5959 83.3795 9.51136 86.2015C8.42682 89.0236 8.31989 91.408 9.55718 92.2984C10.7945 93.1887 11.0847 87.6352 12.1234 87.5296C13.1621 87.4239 15.2701 86.2317 15.1479 87.6503C15.0257 89.0689 12.5817 88.586 12.6428 90.8345C12.7039 93.0831 15.1632 98.2745 15.1632 98.2745C15.1632 98.2745 21.7468 96.0108 22.6785 92.8417C23.1368 91.2873 23.2896 89.265 22.4952 88.1483C21.7009 87.0315 23.7478 85.6733 24.5116 87.5899C25.2753 89.5065 24.3435 94.9243 23.6409 95.9052C22.9382 96.8861 26.2835 97.0672 28.8344 94.5319C29.9953 93.3849 30.866 85.5979 28.1929 83.7869C25.5197 81.976 24.1602 79.1992 26.0085 79.2445C27.8568 79.2898 28.3609 80.1952 29.1247 82.2627C29.8884 84.3302 31.8589 91.2873 30.3467 92.9171C28.8344 94.5319 33.7836 92.6455 35.0056 90.8044C36.2276 88.9632 36.9608 80.1198 30.6675 77.9467C25.9933 76.3319 30.4383 74.0531 32.1797 75.517C33.9211 76.9808 38.3967 84.119 36.7011 87.4541C35.0056 90.7893 40.1228 88.1332 40.856 82.8362C41.5892 77.5392 39.5576 71.6989 36.8539 70.0389C34.1349 68.3788 32.8365 68.1223 35.1431 67.6243C37.4496 67.1263 40.1992 70.22 40.6727 71.2764C41.1309 72.3327 45.3774 66.4472 41.742 62.6895C38.1065 58.9318 29.6135 64.0779 28.6664 65.3757C28.6511 65.3757 30.2856 64.8626 30.866 61.9651Z" fill="#0C8B6D"/>
    <path d="M43.1016 9.25202C43.0711 9.2822 44.0181 -0.406336 56.6202 0.740595C69.1764 1.88753 73.8658 13.4021 72.2925 14.9565C70.7192 16.5109 62.6997 7.0789 59.0489 9.01058C55.3982 10.9422 57.9491 11.5459 57.9491 11.5459C61.5235 12.4664 62.3484 10.9121 65.0826 11.0177C67.8169 11.1233 82.4505 12.7381 79.8384 26.8635C79.8384 26.8635 68.5654 16.4807 64.2119 16.5863C57.9949 16.7373 61.1569 19.2877 61.1569 19.2877C61.1569 19.2877 75.5461 21.2495 78.1734 24.3734C84.6348 32.0397 77.0125 37.4876 76.5237 38.6799C75.9891 39.042 68.7792 28.5688 62.3331 25.1129C57.2617 22.3965 61.5388 29.0366 61.5388 29.0366C61.5388 29.0366 75.8822 34.4543 76.5237 38.6799C77.1653 42.9054 76.2182 46.3613 75.3628 46.8442C74.5074 47.3271 66.0144 33.3678 60.8514 32.3567C55.6884 31.3456 54.4358 31.3003 55.3065 33.2018C56.1772 35.1033 67.2517 39.8721 68.2598 43.5091C69.268 47.146 68.7334 54.7973 63.1274 56.4724C63.1274 56.4724 62.9746 45.8935 58.499 43.9316C54.0234 41.9697 51.4877 37.1707 49.7769 39.4042C48.0661 41.6528 59.0947 46.6329 59.0184 50.7075C58.942 54.7822 57.7963 57.7853 55.5967 58.2079C53.3971 58.6304 56.0703 51.6281 54.7108 50.9339C53.3513 50.2397 51.1211 47.644 50.4948 49.455C49.8685 51.2659 53.4888 51.9903 52.1751 54.7369C50.8614 57.4835 44.6292 62.5541 44.6292 62.5541C44.6292 62.5541 36.8388 56.2158 37.3123 51.7941C37.5415 49.6361 38.4427 47.0555 40.1535 46.1047C41.8491 45.154 39.7869 42.3772 37.6942 44.324C35.6015 46.2707 33.8907 53.4692 34.3184 55.0538C34.7461 56.6384 30.0566 55.0689 27.9639 50.5717C27.0169 48.5344 30.0872 38.4535 34.7614 37.6537C39.4356 36.8538 42.8267 34.1525 40.2605 33.2168C37.6942 32.2812 36.518 33.1263 34.3337 35.2692C32.1493 37.4122 25.5963 44.9427 26.7878 47.7648C27.9792 50.5868 22.2205 45.5615 21.5636 42.6338C20.9068 39.7061 24.7714 28.3877 34.5934 29.0819C41.8949 29.595 37.0527 24.4036 33.8602 25.2789C30.6676 26.1542 20.6013 32.5528 21.0748 37.5933C21.5636 42.6337 16.0188 36.5973 17.9282 29.6553C19.8375 22.7134 25.8407 16.5863 30.4843 15.9978C35.128 15.4092 37.0527 15.7865 34.1657 13.9303C31.2787 12.0741 25.7949 14.4283 24.5729 15.4696C23.3508 16.5109 20.7846 6.97326 27.8417 4.28702C34.9141 1.60079 43.7279 12.5268 44.2931 14.6396C44.2626 14.6396 42.3073 13.1305 43.1016 9.25202Z" fill="#0C8B6D"/>
    <path d="M91.2183 60.8638C91.2183 60.8638 92.2417 49.319 79.2884 47.8099C66.3351 46.3007 56.1771 49.2284 57.4449 51.4016C58.7128 53.5747 71.4064 51.1601 74.7211 54.2538C78.0205 57.3475 79.5481 59.8526 75.7446 60.1092C71.941 60.3658 71.4217 58.3586 68.6263 57.8455C65.831 57.3475 50.5864 51.3261 50.342 68.3792C50.342 68.3792 59.2321 60.6827 68.3819 64.5309C77.5317 68.3792 70.9176 68.3792 70.9176 68.3792C70.9176 68.3792 55.4286 66.8701 52.6332 70.3863C49.8379 73.9026 47.3022 82.6856 47.5466 84.1797C47.5466 84.1797 59.0183 71.6389 68.5194 74.8986C78.0206 78.1583 68.5194 79.6674 68.5194 79.6674C68.5194 79.6674 52.8776 82.6856 51.3501 87.4394C49.8226 92.2082 50.0823 96.479 50.846 97.2185C51.6098 97.973 63.0814 83.6666 68.5194 83.6666C73.9574 83.6666 75.2252 83.9231 73.9574 85.9303C72.6895 87.9374 60.4999 90.9556 58.7127 94.9699C56.9408 98.9841 55.9174 108.024 61.2484 111.283C61.2484 111.283 63.5702 98.9841 68.5041 97.7316C73.438 96.479 76.9971 91.4536 78.265 94.4719C79.5328 97.4901 67.3432 100.75 66.5795 105.519C65.8157 110.287 66.3656 114.045 68.5041 115.056C70.6426 116.067 69.3748 107.284 70.9023 106.771C72.4298 106.258 75.2252 103.753 75.4696 106.017C75.7293 108.28 71.9105 108.28 72.6742 111.781C73.438 115.298 80.541 119.81 80.541 119.81C80.541 119.81 86.3761 119.055 87.6592 116.792C88.9423 114.528 88.1633 106.002 86.6357 104.492C85.1082 102.983 87.7661 100.222 89.4922 102.983C91.2183 105.745 91.4627 114.528 90.6989 116.279C89.9352 118.029 97.5575 115.026 98.0616 112.521C98.5656 110.016 96.2896 99.7236 91.7071 97.7165C87.1398 95.7093 86.3761 89.9445 89.1714 89.4314C91.9668 88.9334 92.9749 90.186 94.7621 93.1891C96.534 96.2074 101.621 106.484 99.8488 109.503C98.0768 112.521 104.935 107.994 106.203 104.734C107.471 101.474 103.148 87.6657 95.7856 85.9151C88.4229 84.1646 94.258 79.8938 97.3131 81.6443C100.368 83.3949 109.243 93.1891 107.731 98.9539C106.203 104.719 113.062 98.954 112.558 90.4274C112.054 81.9009 107.227 73.3593 102.659 71.6087C98.0921 69.8581 96.0605 69.8581 99.3599 68.349C102.659 66.8399 107.746 70.8541 108.754 72.3633C109.778 73.8724 114.345 63.3236 107.731 58.5699C101.132 53.8011 89.9505 64.5007 88.9423 66.855C88.927 66.8852 91.2183 65.5873 91.2183 60.8638Z" fill="#27B68A"/>
    <path d="M116.468 55.883C116.468 55.883 113.199 51.7028 118.056 47.8244C122.914 43.9459 127.741 42.4821 127.771 43.6441C127.802 44.8061 122.074 47.1151 121.509 49.1373C120.943 51.1595 120.943 52.5177 122.547 51.6424C124.151 50.7671 123.861 49.8617 124.854 48.9562C125.862 48.0507 130.521 41.8482 134.859 48.3375C134.859 48.3375 129.36 47.6432 126.626 51.4613C123.891 55.2643 126.549 53.5892 126.549 53.5892C126.549 53.5892 132.43 49.0618 134.431 49.6957C136.432 50.3295 139.64 53.061 139.915 53.6948C139.915 53.6948 132.171 51.7933 129.146 55.4756C126.122 59.1578 130.322 57.3016 130.322 57.3016C130.322 57.3016 137.379 54.4645 139.182 55.9132C140.984 57.362 141.931 59.0522 141.809 59.5351C141.687 60.018 133.5 57.4525 131.315 58.8409C129.116 60.2293 128.673 60.6519 129.681 61.0895C130.689 61.5422 136.356 59.5804 138.082 60.667C139.793 61.7535 142.451 64.9679 141.107 67.5787C141.107 67.5787 137.12 63.4437 134.813 64.2285C132.507 64.9981 129.833 63.987 130.063 65.4659C130.292 66.9449 136.035 65.0887 137.517 66.7336C138.999 68.3786 139.717 69.948 139.106 70.8837C138.494 71.8193 136.829 68.122 136.081 68.3182C135.348 68.5144 133.591 68.2578 134.049 69.1935C134.508 70.1291 136.05 69.1482 136.616 70.7026C137.181 72.2419 135.424 75.7883 135.424 75.7883C135.424 75.7883 132.873 76.9805 131.804 76.4372C130.735 75.894 128.917 72.423 129.161 71.4571C129.406 70.4913 127.649 70.114 127.634 71.6081C127.619 73.1021 129.696 76.5429 130.444 77.0258C131.193 77.5087 127.359 78.2935 126.534 77.4635C125.709 76.6334 124.075 72.091 125.419 70.1593C126.763 68.2276 125.648 65.813 124.396 66.3261C123.143 66.8392 123.051 67.5787 123.067 69.1935C123.082 70.8082 123.601 76.0449 125.068 76.7542C126.534 77.4635 122.639 77.4635 121.325 76.5429C119.996 75.6072 118.316 69.2086 120.852 66.6582C123.387 64.1077 119.966 63.9568 119.171 65.4056C118.377 66.8543 117.216 72.8757 119.263 74.7018C121.31 76.5278 117.109 76.06 115.2 72.6494C113.29 69.2388 113.122 64.7416 114.528 62.9004C115.933 61.0593 116.758 60.5462 115.047 60.8028C113.336 61.0593 112.282 63.8965 112.252 64.7416C112.221 65.5867 107.746 62.7043 109.243 59.188C110.724 55.6718 117.904 56.9394 118.881 57.5733C118.881 57.6185 117.629 57.694 116.468 55.883Z" fill="#129576"/>
    <path d="M97.9694 25.5198C97.9694 25.5198 94.7005 21.3395 99.558 17.4611C104.416 13.5826 109.243 12.1188 109.273 13.2808C109.304 14.4428 103.575 16.7518 103.01 18.774C102.445 20.7962 102.445 22.1544 104.049 21.2791C105.653 20.4039 105.363 19.4984 106.356 18.5929C107.364 17.6874 112.023 11.4849 116.361 17.9742C116.361 17.9742 110.862 17.28 108.127 21.0981C105.393 24.9161 108.051 23.2259 108.051 23.2259C108.051 23.2259 113.932 18.6986 115.933 19.3324C117.934 19.9662 121.142 22.6977 121.417 23.3316C121.417 23.3316 113.672 21.4301 110.648 25.1123C107.623 28.7795 111.824 26.9384 111.824 26.9384C111.824 26.9384 118.881 24.1163 120.684 25.55C122.486 26.9987 123.433 28.689 123.311 29.1719C123.189 29.6548 115.001 27.0893 112.817 28.4777C110.617 29.8661 110.174 30.2886 111.182 30.7263C112.191 31.179 117.858 29.2171 119.584 30.3037C121.31 31.3903 123.953 34.6047 122.608 37.2155C122.608 37.2155 118.622 33.0805 116.315 33.8652C114.008 34.65 111.335 33.6238 111.564 35.1027C111.793 36.5817 117.537 34.7254 119.019 36.3704C120.5 38.0153 121.218 39.5848 120.607 40.5205C119.996 41.4561 118.331 37.7588 117.583 37.955C116.85 38.1511 115.093 37.8946 115.551 38.8302C116.009 39.7659 117.552 38.785 118.117 40.3394C118.683 41.8787 116.926 45.4251 116.926 45.4251C116.926 45.4251 114.375 46.6173 113.306 46.074C112.236 45.5308 110.419 42.0598 110.663 41.0939C110.908 40.1281 109.151 39.7508 109.136 41.2449C109.12 42.7389 111.198 46.1797 111.946 46.6626C112.695 47.1455 108.861 47.9302 108.036 47.1002C107.211 46.2702 105.576 41.7278 106.921 39.7961C108.265 37.8644 107.15 35.4498 105.897 35.9629C104.645 36.476 104.553 37.2155 104.568 38.8302C104.599 40.445 105.103 45.6817 106.569 46.3909C108.036 47.1002 104.141 47.1002 102.827 46.1797C101.498 45.244 99.8177 38.8453 102.353 36.2949C104.889 33.7445 101.467 33.5936 100.673 35.0424C99.8788 36.4911 98.7179 42.5125 100.765 44.3385C102.812 46.1646 98.611 45.6967 96.7016 42.2861C94.7922 38.8755 94.6242 34.3783 96.0295 32.5372C97.4348 30.6961 98.2597 30.183 96.5488 30.4395C94.838 30.6961 93.784 33.5332 93.7535 34.3783C93.7229 35.2234 89.2473 32.341 90.7443 28.8248C92.2259 25.3085 99.4053 26.5762 100.383 27.21C100.383 27.2553 99.1456 27.3307 97.9694 25.5198Z" fill="#27B68A"/>
    <path d="M48.8039 151.29V151.281L48.8031 151.273L46.1181 124.011H99.1908L95.1721 151.264L95.1702 151.277L95.1702 151.29C95.1853 161.515 86.8023 169.815 76.4322 169.815H67.5573C57.2024 169.815 48.8039 161.515 48.8039 151.29Z" fill="#E66464" stroke="#B43F3F" stroke-width="0.345238"/>
    <path d="M89.8197 124.872L85.8144 151.207C85.8144 161.109 77.426 169.144 67.0879 169.144H75.0833C85.4214 169.144 93.8098 161.109 93.8098 151.207L97.8151 124.872H89.8197Z" fill="#CD5352"/>
</svg>
