<svg width="61" height="61" viewBox="0 0 61 61" fill="none" xmlns="http://www.w3.org/2000/svg">
    <path d="M30.4998 18.499C25.1576 18.499 20.6306 23.1541 19.0755 29.5872C18.8425 30.5503 18.6765 31.5543 18.5845 32.5873C18.5285 33.2153 18.4995 33.8533 18.4995 34.4993C18.4995 34.8654 18.5085 35.2284 18.5265 35.5874C18.5785 36.6174 18.7035 37.6204 18.8945 38.5874C20.2495 45.4446 24.9316 50.4997 30.4998 50.4997C37.1269 50.4997 42.5 43.3365 42.5 34.4993C42.5 25.6622 37.1269 18.499 30.4998 18.499Z" fill="#FFCA28"/>
    <path d="M18.8251 24.5881H18.7351C16.559 24.5881 14.632 25.9962 13.971 28.0692L10.1199 40.1515C9.60588 41.7645 10.8089 43.4105 12.5019 43.4105H14.581C15.816 43.4105 16.979 43.1065 18.0061 42.5775C17.051 40.1445 16.5 37.4054 16.5 34.4993C16.5 30.8383 17.359 27.4342 18.8251 24.5881Z" fill="#EF5350"/>
    <path d="M50.8805 40.1517L47.0294 28.0704C46.3684 25.9974 44.4423 24.5894 42.2653 24.5894H42.1753C43.6413 27.4344 44.5003 30.8385 44.5003 34.4996C44.5003 37.4056 43.9493 40.1447 42.9943 42.5777C44.0223 43.1067 45.1844 43.4107 46.4194 43.4107H48.4984C50.1915 43.4107 51.3945 41.7637 50.8805 40.1517Z" fill="#EF5350"/>
    <path d="M45.5002 50H10.4995C10.2975 50 10.1145 50.122 10.0375 50.309C9.95947 50.496 10.0025 50.711 10.1455 50.854C11.3865 52.095 12.0695 53.7461 12.0695 55.5001C12.0695 57.2561 11.3865 58.9052 10.1455 60.1462C10.0025 60.2892 9.95947 60.5042 10.0375 60.6912C10.1145 60.8782 10.2975 61.0002 10.4995 61.0002H45.5002C48.5333 61.0002 51.0003 58.5322 51.0003 55.5001C51.0003 52.468 48.5333 50 45.5002 50ZM45.5002 60.0002H11.5905C12.5515 58.7052 13.0705 57.1431 13.0705 55.5001C13.0705 53.8581 12.5505 52.295 11.5905 51H45.5002C47.9813 51 50.0003 53.0191 50.0003 55.5001C50.0003 57.9812 47.9813 60.0002 45.5002 60.0002Z" fill="#37474F"/>
    <path d="M45.0003 52.5001H12.1086C11.9446 52.5001 11.7906 52.5811 11.6976 52.7161C11.6046 52.8511 11.5826 53.0241 11.6406 53.1771C12.2057 54.6762 12.2057 56.3252 11.6406 57.8232C11.5826 57.9762 11.6036 58.1492 11.6976 58.2842C11.7916 58.4192 11.9446 58.5002 12.1086 58.5002H45.0003C46.6543 58.5002 48.0004 57.1542 48.0004 55.5002C48.0004 53.8461 46.6543 52.5001 45.0003 52.5001ZM45.0003 57.5002H12.7967C13.1557 56.1902 13.1547 54.8102 12.7967 53.5001H45.0003C46.1033 53.5001 47.0004 54.3972 47.0004 55.5002C47.0004 56.6032 46.1033 57.5002 45.0003 57.5002Z" fill="#37474F"/>
    <path d="M42.5002 55H12.5606C12.2846 55 12.0605 55.224 12.0605 55.5C12.0605 55.776 12.2846 56 12.5606 56H42.5002C42.7762 56 43.0002 55.776 43.0002 55.5C43.0002 55.224 42.7762 55 42.5002 55Z" fill="#37474F"/>
    <path d="M19.0825 32.6336C19.1065 32.3586 18.9045 32.1146 18.6285 32.0906C18.3545 32.0726 18.1105 32.2696 18.0865 32.5436C18.0285 33.1876 17.9995 33.8467 17.9995 34.4997C17.9995 34.8747 18.0085 35.2447 18.0275 35.6127C18.0415 35.8797 18.2615 36.0877 18.5265 36.0877C18.5345 36.0877 18.5435 36.0877 18.5515 36.0867C18.8275 36.0727 19.0395 35.8387 19.0265 35.5627C19.0085 35.2117 18.9995 34.8567 18.9995 34.4997C18.9995 33.8757 19.0275 33.2476 19.0825 32.6336Z" fill="#37474F"/>
    <path d="M30.4997 17.9993C25.0346 17.9993 20.2475 22.6094 18.5895 29.4715C18.5245 29.7405 18.6895 30.0095 18.9575 30.0755C19.2255 30.1365 19.4965 29.9755 19.5615 29.7065C21.1095 23.3024 25.5046 18.9993 30.4997 18.9993C36.8408 18.9993 41.9999 25.9524 41.9999 34.4996C41.9999 43.0468 36.8408 49.9999 30.4997 49.9999C25.2946 49.9999 20.7245 45.2678 19.3855 38.4917C19.3315 38.2207 19.0685 38.0387 18.7975 38.0977C18.5265 38.1517 18.3505 38.4137 18.4035 38.6847C19.8375 45.9368 24.8116 50.9999 30.4997 50.9999C37.3928 50.9999 43 43.5978 43 34.4996C43 25.4014 37.3928 17.9993 30.4997 17.9993Z" fill="#37474F"/>
    <path d="M51.3564 39.9987L47.5054 27.9174C46.7753 25.6284 44.6693 24.0894 42.1742 24.0894C41.8982 24.0894 41.7192 24.3134 41.7192 24.5894C41.7192 24.8654 41.9882 25.0894 42.2642 25.0894C44.2313 25.0894 45.9543 26.3484 46.5513 28.2224L50.4024 40.3027C50.5984 40.9177 50.4924 41.5707 50.1114 42.0907C49.7304 42.6117 49.1424 42.9107 48.4964 42.9107H46.4173C45.2993 42.9107 44.2243 42.6487 43.2203 42.1337C42.9743 42.0057 42.6733 42.1047 42.5473 42.3497C42.4213 42.5947 42.5183 42.8967 42.7633 43.0227C43.9093 43.6128 45.1383 43.9118 46.4173 43.9118H48.4964C49.4644 43.9118 50.3474 43.4638 50.9184 42.6827C51.4914 41.8987 51.6504 40.9217 51.3564 39.9987Z" fill="#37474F"/>
    <path d="M18.7347 24.0894C16.3307 24.0894 14.2246 25.6284 13.4946 27.9184L9.64353 39.9997C9.34952 40.9217 9.50853 41.8987 10.0805 42.6817C10.6515 43.4628 11.5346 43.9108 12.5026 43.9108H14.5816C15.8597 43.9108 17.0897 43.6118 18.2357 43.0217C18.4817 42.8957 18.5777 42.5937 18.4517 42.3487C18.3257 42.1027 18.0247 42.0027 17.7787 42.1327C16.7757 42.6487 15.6997 42.9097 14.5816 42.9097H12.5026C11.8566 42.9097 11.2686 42.6107 10.8876 42.0897C10.5065 41.5687 10.4005 40.9167 10.5965 40.3017L14.4476 28.2214C15.0446 26.3474 16.7677 25.0884 18.7347 25.0884H18.8247C19.1007 25.0884 19.2797 24.8644 19.2797 24.5884C19.2797 24.3124 19.0107 24.0894 18.7347 24.0894Z" fill="#37474F"/>
    <path d="M16.4995 13.4099L17.1065 17.054C17.5885 19.948 19.2896 22.3711 21.6256 23.8521H39.373C41.709 22.3721 43.4101 19.948 43.8921 17.054L44.5001 13.4099H16.4995Z" fill="#FFCA28"/>
    <path d="M44.8813 13.0869C44.7863 12.9749 44.6473 12.9099 44.5003 12.9099H16.4997C16.3527 12.9099 16.2127 12.9739 16.1187 13.0869C16.0237 13.1989 15.9827 13.3479 16.0067 13.4919L16.6137 17.136C17.1027 20.0721 18.8328 22.6731 21.3588 24.2741C21.4388 24.3251 21.5318 24.3521 21.6268 24.3521H39.3742C39.4692 24.3521 39.5622 24.3251 39.6422 24.2741C42.1683 22.6731 43.8973 20.0721 44.3873 17.136L44.9943 13.4919C45.0183 13.3479 44.9773 13.1989 44.8813 13.0869ZM43.3993 16.972C42.9643 19.58 41.4462 21.8981 39.2262 23.3521H21.7728C19.5528 21.8981 18.0348 19.581 17.5998 16.972L17.0897 13.9099H43.9103L43.3993 16.972Z" fill="#37474F"/>
    <path d="M20.874 4.4989V13.4481L22.8891 14.6081C27.5222 17.2762 33.2253 17.2762 37.8594 14.6081L39.8744 13.4481V4.4989H20.874Z" fill="#64B5F6"/>
    <path d="M39.8749 3.99902H20.8745C20.5985 3.99902 20.3745 4.22303 20.3745 4.49903V13.4482C20.3745 13.6272 20.4705 13.7922 20.6245 13.8822L22.6396 15.0422C25.0256 16.4153 27.6997 17.1023 30.3737 17.1023C33.0478 17.1023 35.7228 16.4153 38.1079 15.0422L40.1229 13.8822C40.2779 13.7922 40.3729 13.6272 40.3729 13.4482V4.49903C40.3749 4.22303 40.1509 3.99902 39.8749 3.99902ZM39.3749 13.1592L37.6099 14.1752C33.1468 16.7453 27.6017 16.7453 23.1386 14.1752L21.3735 13.1592V4.99904H39.3739V13.1592H39.3749Z" fill="#37474F"/>
    <path d="M30.3743 0.498901L15.374 4.49898L30.3743 8.49906L45.3746 4.49898L30.3743 0.498901Z" fill="#64B5F6"/>
    <path d="M45.5031 4.01583L30.5028 0.0157503C30.4178 -0.00525011 30.3298 -0.00525011 30.2448 0.0157503L15.2445 4.01583C15.0265 4.07383 14.8745 4.27184 14.8745 4.49884C14.8745 4.72585 15.0265 4.92385 15.2455 4.98185L30.2458 8.98193C30.2878 8.99293 30.3308 8.99893 30.3748 8.99893C30.4188 8.99893 30.4608 8.99293 30.5038 8.98193L45.5041 4.98185C45.7221 4.92385 45.8751 4.72585 45.8751 4.49884C45.8751 4.27184 45.7221 4.07383 45.5031 4.01583ZM30.3748 7.98091L17.3146 4.49884L30.3748 1.01677L43.4341 4.49884L30.3748 7.98091Z" fill="#37474F"/>
    <path d="M45.375 3.99902C45.099 3.99902 44.875 4.22303 44.875 4.49903V9.49914C44.875 9.77514 45.099 9.99915 45.375 9.99915C45.651 9.99915 45.875 9.77514 45.875 9.49914V4.49903C45.875 4.22303 45.651 3.99902 45.375 3.99902Z" fill="#37474F"/>
    <path d="M32.6862 24.9463C32.4322 24.8433 32.1381 24.9673 32.0361 25.2243L30.5001 29.0634L28.9641 25.2243C28.8611 24.9683 28.5691 24.8433 28.3141 24.9463C28.0581 25.0493 27.9331 25.3403 28.0351 25.5953L30.0351 30.5954C30.1111 30.7854 30.2951 30.9094 30.4991 30.9094C30.7031 30.9094 30.8871 30.7854 30.9631 30.5954L32.9632 25.5953C33.0672 25.3403 32.9422 25.0493 32.6862 24.9463Z" fill="#37474F"/>
    <path d="M25.4991 26.9104C28.2606 26.9104 30.4992 24.6717 30.4992 21.9103C30.4992 19.1488 28.2606 16.9102 25.4991 16.9102C22.7376 16.9102 20.499 19.1488 20.499 21.9103C20.499 24.6717 22.7376 26.9104 25.4991 26.9104Z" fill="white"/>
    <path d="M25.4996 16.41C22.4666 16.41 19.9995 18.8781 19.9995 21.9101C19.9995 24.9422 22.4666 27.4103 25.4996 27.4103C28.5327 27.4103 30.9997 24.9422 30.9997 21.9101C30.9997 18.8781 28.5317 16.41 25.4996 16.41ZM25.4996 26.4102C23.0186 26.4102 20.9995 24.3912 20.9995 21.9101C20.9995 19.4291 23.0186 17.4101 25.4996 17.4101C27.9807 17.4101 29.9997 19.4291 29.9997 21.9101C29.9997 24.3912 27.9807 26.4102 25.4996 26.4102Z" fill="#37474F"/>
    <path d="M35.5001 26.9104C38.2616 26.9104 40.5002 24.6717 40.5002 21.9103C40.5002 19.1488 38.2616 16.9102 35.5001 16.9102C32.7386 16.9102 30.5 19.1488 30.5 21.9103C30.5 24.6717 32.7386 26.9104 35.5001 26.9104Z" fill="white"/>
    <path d="M35.5001 16.41C32.4671 16.41 30 18.8781 30 21.9101C30 24.9422 32.4671 27.4103 35.5001 27.4103C38.5332 27.4103 41.0002 24.9422 41.0002 21.9101C41.0002 18.8781 38.5332 16.41 35.5001 16.41ZM35.5001 26.4102C33.0191 26.4102 31 24.3912 31 21.9101C31 19.4291 33.0191 17.4101 35.5001 17.4101C37.9812 17.4101 40.0002 19.4291 40.0002 21.9101C40.0002 24.3912 37.9812 26.4102 35.5001 26.4102Z" fill="#37474F"/>
    <path d="M25.5 19.9103C24.397 19.9103 23.5 20.8073 23.5 21.9103C23.5 23.0133 24.397 23.9104 25.5 23.9104C26.6031 23.9104 27.5001 23.0133 27.5001 21.9103C27.5001 20.8073 26.6031 19.9103 25.5 19.9103ZM25.5 22.9103C24.949 22.9103 24.5 22.4623 24.5 21.9103C24.5 21.3583 24.949 20.9103 25.5 20.9103C26.0511 20.9103 26.5001 21.3583 26.5001 21.9103C26.5001 22.4623 26.0511 22.9103 25.5 22.9103Z" fill="#37474F"/>
    <path d="M35.5 19.9103C34.397 19.9103 33.5 20.8073 33.5 21.9103C33.5 23.0133 34.397 23.9104 35.5 23.9104C36.6031 23.9104 37.5001 23.0133 37.5001 21.9103C37.5001 20.8073 36.6031 19.9103 35.5 19.9103ZM35.5 22.9103C34.949 22.9103 34.5 22.4623 34.5 21.9103C34.5 21.3583 34.949 20.9103 35.5 20.9103C36.0511 20.9103 36.5001 21.3583 36.5001 21.9103C36.5001 22.4623 36.0511 22.9103 35.5 22.9103Z" fill="#37474F"/>
    <path d="M38.4991 48.4997C38.4991 47.9476 38.0511 47.4996 37.4991 47.4996H33.499C32.947 47.4996 32.499 47.9476 32.499 48.4997V52.4997C32.499 53.0518 32.947 53.4998 33.499 53.4998H37.4991C38.0511 53.4998 38.4991 53.0518 38.4991 52.4997V48.4997Z" fill="#FFCA28"/>
    <path d="M37.5001 46.9996H33.5C32.673 46.9996 32 47.6726 32 48.4997V52.4997C32 53.3268 32.673 53.9998 33.5 53.9998H37.5001C38.3271 53.9998 39.0001 53.3268 39.0001 52.4997V48.4997C39.0001 47.6726 38.3271 46.9996 37.5001 46.9996ZM38.0001 52.4997C38.0001 52.7747 37.7761 52.9997 37.5001 52.9997H33.5C33.224 52.9997 33 52.7747 33 52.4997V48.4997C33 48.2247 33.224 47.9997 33.5 47.9997H37.5001C37.7761 47.9997 38.0001 48.2247 38.0001 48.4997V52.4997Z" fill="#37474F"/>
    <path d="M35.5 48.9998C35.224 48.9998 35 49.2238 35 49.4998V53.4999C35 53.7759 35.224 53.9999 35.5 53.9999C35.776 53.9999 36 53.7759 36 53.4999V49.4998C36 49.2238 35.776 48.9998 35.5 48.9998Z" fill="#37474F"/>
    <path d="M28.4991 48.4997C28.4991 47.9476 28.0511 47.4996 27.4991 47.4996H23.499C22.947 47.4996 22.499 47.9476 22.499 48.4997V52.4997C22.499 53.0518 22.947 53.4998 23.499 53.4998H27.4991C28.0511 53.4998 28.4991 53.0518 28.4991 52.4997V48.4997Z" fill="#FFCA28"/>
    <path d="M27.5001 46.9995H23.5C22.673 46.9995 22 47.6725 22 48.4995V52.4996C22 53.3266 22.673 53.9997 23.5 53.9997H27.5001C28.3271 53.9997 29.0001 53.3266 29.0001 52.4996V48.4995C29.0001 47.6725 28.3271 46.9995 27.5001 46.9995ZM28.0001 52.4996C28.0001 52.7746 27.7761 52.9996 27.5001 52.9996H23.5C23.224 52.9996 23 52.7746 23 52.4996V48.4995C23 48.2245 23.224 47.9995 23.5 47.9995H27.5001C27.7761 47.9995 28.0001 48.2245 28.0001 48.4995V52.4996Z" fill="#37474F"/>
    <path d="M25.5 48.9998C25.224 48.9998 25 49.2238 25 49.4998V53.4998C25 53.7759 25.224 53.9999 25.5 53.9999C25.776 53.9999 26 53.7759 26 53.4998V49.4998C26 49.2238 25.776 48.9998 25.5 48.9998Z" fill="#37474F"/>
    <path d="M58.1587 19.024L56.5006 18.472C55.8086 18.242 55.2586 17.692 55.0276 16.999L54.4746 15.3409C54.3386 14.9329 53.6626 14.9329 53.5266 15.3409L52.9736 16.999C52.7426 17.691 52.1915 18.242 51.5005 18.472L49.8425 19.025C49.6385 19.093 49.5005 19.284 49.5005 19.499C49.5005 19.714 49.6385 19.905 49.8425 19.974L51.5005 20.526C52.1925 20.756 52.7426 21.307 52.9736 21.9991L53.5266 23.6571C53.5946 23.8611 53.7856 23.9991 54.0006 23.9991C54.2156 23.9991 54.4066 23.8611 54.4746 23.6571L55.0276 21.9991C55.2576 21.308 55.8076 20.758 56.4996 20.526L58.1587 19.973C58.3627 19.905 58.5007 19.714 58.5007 19.499C58.5007 19.284 58.3627 19.093 58.1587 19.024ZM56.1836 19.577C55.1946 19.908 54.4086 20.695 54.0796 21.682L54.0006 21.918L53.9216 21.683C53.5926 20.695 52.8056 19.909 51.8165 19.578L51.5815 19.499L51.8165 19.421C52.8056 19.092 53.5926 18.305 53.9216 17.316L54.0006 17.081L54.0786 17.316C54.4086 18.304 55.1946 19.091 56.1836 19.421L56.4186 19.499L56.1836 19.577Z" fill="#37474F"/>
    <path d="M11.1577 19.0244L9.49966 18.4723C8.80864 18.2433 8.25763 17.6923 8.02662 16.9993L7.47361 15.3413C7.33761 14.9333 6.6616 14.9333 6.52559 15.3413L5.97258 16.9993C5.74258 17.6913 5.19257 18.2413 4.50055 18.4723L2.84152 19.0254C2.63751 19.0934 2.49951 19.2844 2.49951 19.4994C2.49951 19.7144 2.63751 19.9054 2.84152 19.9744L4.49955 20.5264C5.19157 20.7574 5.74258 21.3074 5.97258 21.9994L6.52559 23.6575C6.5936 23.8615 6.7846 23.9995 6.9996 23.9995C7.21461 23.9995 7.40561 23.8615 7.47361 23.6575L8.02662 21.9994C8.25763 21.3084 8.80764 20.7574 9.49966 20.5264L11.1577 19.9734C11.3617 19.9054 11.4997 19.7144 11.4997 19.4994C11.4997 19.2844 11.3617 19.0934 11.1577 19.0244ZM9.18365 19.5774C8.19463 19.9084 7.40761 20.6944 7.07861 21.6824L6.9996 21.9184L6.9216 21.6834C6.5926 20.6964 5.80558 19.9094 4.81656 19.5784L4.58155 19.4994L4.81656 19.4214C5.80558 19.0914 6.5916 18.3043 6.9206 17.3163L6.9996 17.0803L7.07861 17.3153C7.40861 18.3043 8.19563 19.0914 9.18365 19.4204L9.41865 19.4994L9.18365 19.5774Z" fill="#37474F"/>
</svg>
