<svg width="27" height="40" viewBox="0 0 27 40" fill="none" xmlns="http://www.w3.org/2000/svg">
    <g clip-path="url(#clip0)">
        <path d="M20.5868 35.7503H19.3345C19.3345 34.9611 19.3385 33.9563 19.3345 33.2681C19.3106 30.5518 18.4559 28.2301 16.806 26.3213C15.9274 25.3027 14.9812 24.3575 14.0827 23.3573C12.2658 21.3247 12.2579 19.5673 14.0708 17.4888C14.6512 16.8189 15.2674 16.1903 15.8876 15.5709C18.2054 13.2538 19.4855 10.3907 19.3544 6.78429C19.3265 6.07768 19.3345 5.44908 19.7002 5.10955H20.5908C21.4296 5.10955 22.1095 4.32495 22.1095 3.35681C22.1095 2.38868 21.4256 1.61325 20.5868 1.61325H1.68275C0.843893 1.61325 0.164062 2.39785 0.164062 3.36599C0.164062 4.33412 0.843893 5.11873 1.68275 5.11873H2.22343C2.26716 5.12331 2.30692 5.1279 2.35065 5.13708C2.35065 5.9125 2.34667 6.6604 2.35065 7.41288C2.36655 10.2072 3.21733 12.6069 4.9348 14.5707C5.86907 15.6351 6.86695 16.6308 7.78929 17.7045C9.36761 19.5398 9.35966 21.3155 7.77339 23.16C7.10151 23.94 6.38192 24.665 5.67029 25.3945C3.43202 27.6887 2.22343 30.5151 2.33077 34.0251C2.34667 34.5528 2.32282 35.2548 2.32282 35.7503C2.1797 35.81 2.12006 35.7503 1.93321 35.7503H1.68275C0.943283 35.7503 0.331038 36.3606 0.195867 37.1681C0.175989 37.2599 0.164062 37.3517 0.172014 37.4526C0.172014 37.471 0.168038 37.4847 0.168038 37.5031C0.168038 38.4712 0.847868 39.2558 1.68672 39.2558H20.5908C21.4296 39.2558 22.1095 38.4712 22.1095 37.5031C22.1095 36.5349 21.4256 35.7503 20.5868 35.7503Z" fill="#C6D0DC"/>
        <path d="M24.7808 34.6248H23.3661C23.3661 33.8243 23.3706 32.8051 23.3661 32.107C23.3392 29.3519 22.3737 26.9971 20.5099 25.0611C19.5174 24.0279 18.4486 23.0692 17.4336 22.0547C15.3813 19.993 15.3723 18.2106 17.4202 16.1024C18.0758 15.4229 18.7719 14.7853 19.4725 14.1571C22.0907 11.8069 23.5368 8.90285 23.3886 5.24491C23.3572 4.52821 23.3661 3.89063 23.7793 3.54625H24.7853C25.7329 3.54625 26.5008 2.75043 26.5008 1.76847C26.5008 0.786503 25.7284 0 24.7808 0H3.42647C2.47888 0 1.71094 0.795811 1.71094 1.77778C1.71094 2.75974 2.47888 3.55555 3.42647 3.55555H4.03723C4.08663 3.56021 4.13154 3.56486 4.18094 3.57417C4.18094 4.36067 4.17645 5.11925 4.18094 5.88249C4.19891 8.71669 5.15996 11.1507 7.10004 13.1425C8.15541 14.2222 9.28263 15.2321 10.3245 16.3211C12.1074 18.1827 12.0984 19.9837 10.3066 21.8546C9.54759 22.6457 8.73474 23.381 7.93086 24.121C5.40247 26.4479 4.03723 29.3147 4.15849 32.8749C4.17645 33.4101 4.14951 34.1221 4.14951 34.6248C3.98783 34.6853 3.92047 34.6248 3.7094 34.6248H3.42647C2.59116 34.6248 1.89956 35.2437 1.74686 36.0628C1.72441 36.1559 1.71094 36.249 1.71992 36.3513C1.71992 36.37 1.71543 36.3839 1.71543 36.4025C1.71543 37.3845 2.48338 38.1803 3.43096 38.1803H24.7853C25.7329 38.1803 26.5008 37.3845 26.5008 36.4025C26.5008 35.4206 25.7284 34.6248 24.7808 34.6248Z" fill="white"/>
        <path d="M24.5249 34.6248H23.1103C23.1103 33.8243 23.1148 32.8051 23.1103 32.107C23.0833 29.3519 22.1178 26.9971 20.2541 25.0611C19.2616 24.0279 18.1927 23.0692 17.1778 22.0547C15.1254 19.993 15.1165 18.2106 17.1643 16.1024C17.82 15.4229 18.5161 14.7853 19.2167 14.1571C21.8349 11.8069 23.2809 8.90284 23.1327 5.24491C23.1013 4.52821 23.1103 3.89063 23.5235 3.54625H24.5294C25.477 3.54625 26.245 2.75043 26.245 1.76847C26.245 0.786503 25.4725 0 24.5249 0H3.17061C2.22303 0 1.45508 0.795811 1.45508 1.77778C1.45508 2.75974 2.22303 3.55555 3.17061 3.55555H3.78137C3.83077 3.56021 3.87568 3.56486 3.92508 3.57417C3.92508 4.36067 3.92059 5.11925 3.92508 5.88249C3.94305 8.71669 4.9041 11.1507 6.84418 13.1425C7.89955 14.2222 9.02677 15.2321 10.0687 16.3211C11.8516 18.1827 11.8426 19.9837 10.0507 21.8546C9.29173 22.6457 8.47888 23.381 7.675 24.121C5.14661 26.4479 3.78137 29.3147 3.90263 32.8749C3.92059 33.4101 3.89365 34.1221 3.89365 34.6248C3.73197 34.6853 3.66461 34.6248 3.45354 34.6248H3.17061C2.3353 34.6248 1.6437 35.2437 1.49101 36.0628C1.46855 36.1559 1.45508 36.249 1.46406 36.3513C1.46406 36.37 1.45957 36.3839 1.45957 36.4025C1.45957 37.3845 2.22752 38.1803 3.1751 38.1803H24.5294C25.477 38.1803 26.245 37.3845 26.245 36.4025C26.245 35.4206 25.4725 34.6248 24.5249 34.6248ZM7.49536 26.1408C8.57768 24.9819 9.77226 23.9348 10.868 22.7853C13.2348 20.3002 13.2258 17.7917 10.8456 15.3205C9.82166 14.2594 8.73037 13.2775 7.68847 12.2304C5.32176 9.84758 4.93554 6.83653 5.14661 3.55555H21.8663C22.2885 7.49738 21.2735 10.7458 18.3679 13.2589C17.573 13.9476 16.8095 14.6829 16.0775 15.4508C13.8859 17.7545 13.8725 20.356 16.0595 22.6829C16.9128 23.5904 17.838 24.4281 18.7541 25.2705C21.4756 27.7603 22.2346 30.9529 21.8708 34.6294H5.16009C4.89512 31.4415 5.27685 28.5096 7.49536 26.1408Z" fill="#59AEE4"/>
        <path d="M5.96875 8.2001C11.0749 8.2001 15.979 8.2001 21.2918 8.2001C20.4295 9.54507 19.8143 10.7178 18.9924 11.7091C18.1032 12.7795 17.0209 13.6777 16.0194 14.6504C14.8832 15.7533 13.985 16.9913 13.8413 18.676C13.8234 18.8854 13.8458 19.0343 13.7066 19.3368C13.5988 19.6719 13.2889 19.0948 13.28 18.9831C13.0869 16.8703 11.8698 15.4276 10.4462 14.064C9.25161 12.9238 8.11092 11.7091 7.06004 10.4293C6.57502 9.84292 6.35946 9.02849 5.96875 8.2001Z" fill="#F7C648"/>
        <path d="M16.2881 30.413C17.8958 31.6137 19.5171 32.7911 21.1293 33.9779H5.95898C7.03231 33.1728 8.11013 32.3723 9.18346 31.5625C10.3197 30.7062 11.4244 29.808 12.5966 29.0075C12.7807 28.8819 13.0277 28.8121 13.2837 28.7888C13.6025 28.7609 13.9169 28.8586 14.1863 29.0355L16.2612 30.399C16.2701 30.4037 16.2791 30.4084 16.2881 30.413Z" fill="#F7C648"/>
        <path d="M13.5426 21.7289C13.8725 21.7289 14.1399 21.4518 14.1399 21.11C14.1399 20.7681 13.8725 20.491 13.5426 20.491C13.2127 20.491 12.9453 20.7681 12.9453 21.11C12.9453 21.4518 13.2127 21.7289 13.5426 21.7289Z" fill="#F7C648"/>
        <path d="M14.9449 24.0372C15.2748 24.0372 15.5422 23.7601 15.5422 23.4182C15.5422 23.0764 15.2748 22.7993 14.9449 22.7993C14.6151 22.7993 14.3477 23.0764 14.3477 23.4182C14.3477 23.7601 14.6151 24.0372 14.9449 24.0372Z" fill="#F7C648"/>
        <path d="M13.2516 25.2705C13.5815 25.2705 13.8489 24.9934 13.8489 24.6515C13.8489 24.3097 13.5815 24.0326 13.2516 24.0326C12.9217 24.0326 12.6543 24.3097 12.6543 24.6515C12.6543 24.9934 12.9217 25.2705 13.2516 25.2705Z" fill="#F7C648"/>
        <path d="M12.6559 27.9139C12.9858 27.9139 13.2532 27.6368 13.2532 27.2949C13.2532 26.9531 12.9858 26.676 12.6559 26.676C12.326 26.676 12.0586 26.9531 12.0586 27.2949C12.0586 27.6368 12.326 27.9139 12.6559 27.9139Z" fill="#F7C648"/>
        <path d="M11.1461 29.8778C11.476 29.8778 11.7434 29.6007 11.7434 29.2589C11.7434 28.917 11.476 28.6399 11.1461 28.6399C10.8162 28.6399 10.5488 28.917 10.5488 29.2589C10.5488 29.6007 10.8162 29.8778 11.1461 29.8778Z" fill="#F7C648"/>
        <path d="M15.7086 30.0174C16.0385 30.0174 16.3059 29.7403 16.3059 29.3985C16.3059 29.0566 16.0385 28.7795 15.7086 28.7795C15.3787 28.7795 15.1113 29.0566 15.1113 29.3985C15.1113 29.7403 15.3787 30.0174 15.7086 30.0174Z" fill="#F7C648"/>
        <path d="M14.6227 27.3554C14.9526 27.3554 15.22 27.0783 15.22 26.7365C15.22 26.3946 14.9526 26.1175 14.6227 26.1175C14.2928 26.1175 14.0254 26.3946 14.0254 26.7365C14.0254 27.0783 14.2928 27.3554 14.6227 27.3554Z" fill="#F7C648"/>
        <rect x="1.87856" y="0.941049" width="23.4196" height="1.88213" rx="0.941064" fill="#EF835E" stroke="black" stroke-width="1.88213"/>
        <rect x="2.13833" y="35.3571" width="23.4196" height="1.88213" rx="0.941065" fill="#EF835E" stroke="black" stroke-width="1.88213"/>
    </g>
    <defs>
        <clipPath id="clip0">
            <rect width="26.5926" height="39.2558" fill="white" transform="translate(0.162109)"/>
        </clipPath>
    </defs>
</svg>
