<svg width="42" height="42" viewBox="0 0 42 42" fill="none" xmlns="http://www.w3.org/2000/svg">
    <g clip-path="url(#clip0)">
        <path d="M36.9914 40.2506L35.7565 32.5214C35.2434 30.827 33.7204 29.5483 31.8665 29.2249C24.5335 27.9464 17.515 27.9464 10.1821 29.2249C8.3282 29.5483 6.82182 30.827 6.30864 32.5214L5.06055 40.2506H36.9914Z" fill="#2FCBFF"/>
        <g opacity="0.04">
            <path opacity="0.04" d="M36.9886 40.2468H5.05859L5.57023 37.1281H24.2458C28.3391 37.1281 31.4577 33.4734 30.8121 29.4289V29.4045C30.7755 29.2705 30.7268 29.1365 30.6537 29.0147C31.0558 29.0878 31.4699 29.1487 31.872 29.2218C33.7237 29.5507 35.2465 30.8299 35.7581 32.5232L36.9886 40.2468Z" fill="black"/>
        </g>
        <path d="M25.0477 24.2761V29.1468C25.0477 30.3253 24.2143 31.3459 23.0585 31.5761C21.6774 31.8511 20.2922 31.8446 18.9065 31.5497C17.7925 31.3126 17.0137 30.2972 17.0137 29.1583V24.2761C17.0137 23.616 17.5611 23.0605 18.2292 23.0605H23.8321C24.5007 23.0605 25.0477 23.6076 25.0477 24.2761Z" fill="#FFB564"/>
        <path d="M21.0217 8.17487C17.1033 8.17487 13.9297 12.4064 13.9297 17.6451C13.9297 22.8838 17.1118 27.1154 21.0217 27.1154C24.9486 27.1154 28.1223 22.8838 28.1223 17.6451C28.1223 12.4064 24.9402 8.17487 21.0217 8.17487Z" fill="#FFBC74"/>
        <g opacity="0.04">
            <path opacity="0.04" d="M28.1218 17.6487C28.1218 22.8857 24.9464 27.1116 21.0207 27.1116C18.9274 27.1116 17.0475 25.9031 15.7441 23.9757C16.6683 24.5682 17.7031 24.8999 18.8011 24.8999C22.7268 24.8999 25.9022 20.6661 25.9022 15.4291C25.9022 12.9962 25.215 10.7845 24.1012 9.10995C26.4788 10.6344 28.1218 13.8809 28.1218 17.6487Z" fill="black"/>
        </g>
        <path d="M33.1048 14.7398C33.9189 14.7398 34.5788 14.0799 34.5788 13.2658C34.5788 12.4518 33.9189 11.7918 33.1048 11.7918C32.2908 11.7918 31.6309 12.4518 31.6309 13.2658C31.6309 14.0799 32.2908 14.7398 33.1048 14.7398Z" fill="#828FFF"/>
        <g opacity="0.04">
            <path opacity="0.04" d="M34.5762 13.2678C34.5762 14.0817 33.9183 14.7396 33.1044 14.7396C32.4804 14.7396 31.9514 14.353 31.7344 13.8037C31.8971 13.8715 32.0803 13.9054 32.2702 13.9054C33.0841 13.9054 33.742 13.2407 33.742 12.4268C33.742 12.2369 33.7081 12.0538 33.6403 11.891C34.1896 12.108 34.5762 12.6438 34.5762 13.2678Z" fill="black"/>
        </g>
        <path d="M34.5769 7.29412L21.0145 12.2425L7.4668 7.29412L21.0145 1.61021L34.5769 7.29412Z" fill="#52CC89"/>
        <g opacity="0.04">
            <path opacity="0.04" d="M27.8362 9.74989V9.52869C27.8362 9.52869 24.7872 7.64875 21.0194 7.64875C17.2516 7.64875 14.2106 9.52869 14.2106 9.52869V9.75779L7.46484 7.29334L11.5407 5.58714L14.2106 6.46391C14.2106 6.46391 17.2516 4.58401 21.0194 4.58401C24.7872 4.58401 27.8362 6.46391 27.8362 6.46391L30.4981 5.58714L34.574 7.29334L27.8362 9.74989Z" fill="black"/>
        </g>
        <path d="M27.8404 9.5277V14.9264H27.8343C27.8343 14.9264 24.7857 13.056 21.0206 13.056C17.3769 13.056 14.4012 14.8111 14.2129 14.9204V9.5277C14.2129 9.5277 17.2554 7.65117 21.0206 7.65117C24.7857 7.65118 27.8404 9.5277 27.8404 9.5277Z" fill="#51D690"/>
        <g opacity="0.04">
            <path opacity="0.04" d="M27.8384 9.52556V14.9243H27.8323C27.6441 14.815 24.6684 13.0539 21.0247 13.0539C17.3749 13.0539 14.3992 14.815 14.217 14.9243H14.2109V13.0539H14.217C14.3992 12.9446 17.3749 11.1834 21.0247 11.1834C21.7291 11.1834 22.4154 11.2503 23.053 11.3596C24.383 11.5782 25.5915 10.5458 25.5915 9.19763V8.49924C26.97 8.99115 27.8384 9.52556 27.8384 9.52556Z" fill="black"/>
        </g>
        <path d="M36.5503 32.3946C36.5448 32.3584 36.5361 32.3231 36.5259 32.2881C35.93 30.3208 34.1549 28.8071 32.0032 28.4317C29.9154 28.0676 27.8776 27.8252 25.8509 27.6688V25.7605C27.7172 23.8792 28.9255 20.9453 28.9255 17.645C28.9255 16.7128 28.8211 15.8139 28.6397 14.9556C28.6401 14.9454 28.6456 14.9369 28.6456 14.9265V10.3156L32.5001 8.90932V11.4978C31.7627 11.7507 31.2281 12.4433 31.2281 13.2654C31.2281 14.3 32.0693 15.1419 33.1038 15.1419C34.1384 15.1419 34.9804 14.3 34.9804 13.2654C34.9804 12.4433 34.4452 11.7507 33.7076 11.4978V8.46873L34.8538 8.05055C35.1651 7.93695 35.375 7.64451 35.3829 7.31314C35.3907 6.98218 35.1942 6.67991 34.8892 6.55177L21.3266 0.867574C21.127 0.784239 20.9037 0.783853 20.704 0.867968L7.15644 6.55177C6.85063 6.67992 6.65488 6.98218 6.66274 7.31315C6.67061 7.64412 6.88051 7.93695 7.19182 8.05056L13.4078 10.321V14.9203C13.4078 14.9284 13.4108 14.9358 13.411 14.9438C13.2284 15.8055 13.1233 16.7086 13.1233 17.645C13.1233 20.9524 14.3355 23.8915 16.2065 25.7722V27.6683C14.1759 27.8241 12.1341 28.067 10.0424 28.4317C7.90171 28.8055 6.13368 30.3192 5.53699 32.2881C5.52677 32.3227 5.51813 32.3577 5.51263 32.393L4.26424 40.122C4.2265 40.3551 4.29332 40.5929 4.44584 40.7725C4.59914 40.9522 4.82319 41.0555 5.05903 41.0555H36.9897C37.2256 41.0555 37.4496 40.9522 37.6021 40.7729C37.7554 40.5937 37.8215 40.3563 37.7845 40.1236L36.5503 32.3946ZM34.1753 13.2654C34.1753 13.8562 33.695 14.3369 33.1038 14.3369C32.5134 14.3369 32.0331 13.8562 32.0331 13.2654C32.0331 12.6746 32.5134 12.1943 33.1038 12.1943C33.695 12.1943 34.1753 12.6746 34.1753 13.2654ZM15.0179 13.6125V10.0018C15.9148 9.53478 18.2819 8.4562 21.0208 8.4562C23.7598 8.4562 26.1355 9.53518 27.0356 10.0029V13.6141C22.9235 11.758 18.9498 11.8503 15.0179 13.6125ZM21.0153 2.4831L32.3712 7.2424L28.157 8.78005C27.581 8.44614 24.634 6.84619 21.0208 6.84619C17.3981 6.84619 14.4554 8.45429 13.8904 8.78324L9.6721 7.24241L21.0153 2.4831ZM14.7333 17.645C14.7333 16.8791 14.8119 16.1398 14.9498 15.4333C18.8984 13.3499 23.1331 13.3457 27.0999 15.439C27.2372 16.1437 27.3155 16.8812 27.3155 17.645C27.3155 22.4232 24.4916 26.3103 21.02 26.3103C17.5532 26.3103 14.7333 22.4232 14.7333 17.645ZM21.02 27.9203C22.1676 27.9203 23.2558 27.5936 24.2409 27.0196V29.147C24.2409 29.9422 23.6764 30.6317 22.8989 30.7865C21.6262 31.0401 20.3385 31.0318 19.072 30.7626C18.3448 30.6073 17.8165 29.9328 17.8165 29.1584V27.0282C18.7968 27.5972 19.8792 27.9203 21.02 27.9203ZM6.00475 39.4455L7.09276 32.7059C7.52986 31.3372 8.79004 30.2846 10.3191 30.0181C12.3179 29.6694 14.2749 29.4328 16.2168 29.2777C16.2713 30.7561 17.3098 32.033 18.7371 32.3372C20.2063 32.65 21.7046 32.6658 23.2134 32.3655C24.6982 32.0699 25.7786 30.7817 25.8393 29.2777C27.7779 29.4335 29.7316 29.67 31.7265 30.0181C33.2658 30.2866 34.533 31.3384 34.9693 32.7055L36.0464 39.4455H6.00475V39.4455Z" fill="#293C66"/>
    </g>
    <defs>
        <clipPath id="clip0">
            <rect width="41.8605" height="41.8605" fill="white" transform="translate(0.09375)"/>
        </clipPath>
    </defs>
</svg>
