<svg width="23" height="19" viewBox="0 0 23 19" fill="none" xmlns="http://www.w3.org/2000/svg">
    <path d="M23 2.24913C22.1538 2.63064 21.2443 2.88847 20.2899 3.0044C21.264 2.41078 22.0123 1.4708 22.3646 0.350695C21.4528 0.900421 20.443 1.29958 19.3681 1.51464C18.5074 0.582428 17.2811 0 15.9239 0C13.3179 0 11.205 2.14752 11.205 4.79644C11.205 5.17236 11.2468 5.53846 11.3273 5.88955C7.40555 5.68949 3.92853 3.77992 1.60124 0.877923C1.19503 1.58633 0.962335 2.41027 0.962335 3.28934C0.962335 4.95346 1.79536 6.42159 3.06154 7.28181C2.2881 7.25677 1.56041 7.04106 0.92427 6.68181C0.923819 6.70185 0.923819 6.72186 0.923819 6.74209C0.923819 9.06613 2.55038 11.0047 4.709 11.4454C4.31307 11.555 3.89619 11.6137 3.46584 11.6137C3.16178 11.6137 2.86618 11.5835 2.57801 11.5276C3.17851 13.4331 4.92114 14.82 6.98603 14.8586C5.37109 16.1452 3.33646 16.912 1.12563 16.912C0.744753 16.912 0.369149 16.8892 0 16.8448C2.08825 18.2058 4.56861 19 7.23337 19C15.9128 19 20.6591 11.6911 20.6591 5.35261C20.6591 5.14469 20.6545 4.93782 20.6454 4.73206C21.5674 4.05578 22.3675 3.21102 23 2.24913Z" fill="#4F5665"/>
</svg>
